<?xml version="1.0" encoding="UTF-8"?>
<svg fill="#000000" width="700pt" height="700pt" version="1.1" viewBox="0 0 700 700"
    xmlns="http://www.w3.org/2000/svg" xmlns:xlink="http://www.w3.org/1999/xlink">
    <g>
        <path
            d="m291.67 513.33c0 6.4414-5.2266 11.668-11.668 11.668h-116.67c-6.4375 0-11.664-5.2266-11.664-11.668v-221.66h-35c-4.7148 0-8.9727-2.8477-10.781-7.1992-1.8086-4.3633-0.80469-9.3789 2.5312-12.719l233.33-233.33c4.5508-4.5625 11.949-4.5625 16.5 0l233.33 233.33c3.3359 3.3398 4.3398 8.3555 2.5312 12.719-1.8086 4.3516-6.0664 7.1992-10.781 7.1992h-35v221.66c0 6.4414-5.2266 11.668-11.664 11.668h-116.67c-6.4414 0-11.668-5.2266-11.668-11.668v-140c0-6.4375-5.2266-11.664-11.664-11.664h-93.336c-6.4375 0-11.664 5.2266-11.664 11.664v140z"
            fill-rule="evenodd" />
    </g>
</svg>