<svg xmlns="http://www.w3.org/2000/svg" height="48" viewBox="0 -960 960 960" width="48"><path d="M151-215q-19.35 0-32.675-12.86Q105-240.719 105-260.36 105-280 118.325-293T151-306h659q18.375 0 31.688 13.375Q855-279.249 855-260.509q0 20.141-13.312 32.825Q828.375-215 810-215H151Zm0-219q-19.35 0-32.675-13.56Q105-461.119 105-479.86q0-20.14 13.325-32.64T151-525h659q18.375 0 31.688 12.675Q855-499.649 855-480.009q0 19.641-13.312 32.825Q828.375-434 810-434H151Zm0-220q-19.35 0-32.675-13.56Q105-681.119 105-699.86 105-720 118.325-733T151-746h659q18.375 0 31.688 13.175Q855-719.649 855-700.009q0 19.641-13.312 32.825Q828.375-654 810-654H151Z"/></svg>