<svg width="177" height="181" viewBox="0 0 177 181" fill="none" xmlns="http://www.w3.org/2000/svg">
<path fill-rule="evenodd" clip-rule="evenodd" d="M56.2507 169.816C70.447 177.272 86.4179 181 104.163 181C119.65 181 133.604 178.245 146.026 172.734C158.448 167.223 168.773 159.28 177 148.907L146.51 121.19C135.54 134.481 122.231 141.126 106.583 141.126C98.8202 141.126 91.7472 139.682 85.364 136.794L46.1948 163.491C49.3567 165.785 52.7086 167.893 56.2507 169.816ZM19.8629 132.281C13.9543 120.327 11 107.066 11 92.5C11 75.4808 15.033 60.2445 23.0991 46.7912C31.1652 33.3379 42.2157 22.8832 56.2507 15.4272C70.447 7.80907 86.4179 4 104.163 4C119.65 4 133.604 6.7555 146.026 12.2665C158.448 17.7775 168.773 25.7198 177 36.0934L146.51 63.8104C135.54 50.5192 122.231 43.8736 106.583 43.8736C97.3878 43.8736 89.1603 45.8997 81.9009 49.9519C74.8027 54.0041 69.2371 59.7582 65.2041 67.2143C61.3324 74.5082 59.3965 82.9368 59.3965 92.5C59.3965 96.7268 59.7747 100.748 60.531 104.563L19.8629 132.281Z" fill="#0E88DE"/>
<mask id="mask0" mask-type="alpha" maskUnits="userSpaceOnUse" x="0" y="0" width="166" height="177">
<path d="M93.1633 177C75.4179 177 59.447 173.272 45.2507 165.816C31.2157 158.198 20.1652 147.662 12.0991 134.209C4.03304 120.756 0 105.519 0 88.5C0 71.4808 4.03304 56.2445 12.0991 42.7912C20.1652 29.3379 31.2157 18.8832 45.2507 11.4272C59.447 3.80907 75.4179 0 93.1633 0C108.65 0 122.604 2.7555 135.026 8.26649C147.448 13.7775 157.773 21.7198 166 32.0934L135.51 59.8104C124.54 46.5192 111.231 39.8736 95.5831 39.8736C86.3878 39.8736 78.1603 41.8997 70.9009 45.9519C63.8027 50.0041 58.2371 55.7582 54.2041 63.2143C50.3324 70.5082 48.3965 78.9368 48.3965 88.5C48.3965 98.0632 50.3324 106.573 54.2041 114.029C58.2371 121.323 63.8027 126.996 70.9009 131.048C78.1603 135.1 86.3878 137.126 95.5831 137.126C111.231 137.126 124.54 130.481 135.51 117.19L166 144.907C157.773 155.28 147.448 163.223 135.026 168.734C122.604 174.245 108.65 177 93.1633 177Z" fill="black"/>
</mask>
<g mask="url(#mask0)">
<line x1="49.8565" y1="-186.646" x2="-308.647" y2="171.857" stroke="black"/>
<line x1="134.71" y1="-101.794" x2="-223.794" y2="256.709" stroke="black"/>
<line x1="219.562" y1="-16.9409" x2="-138.941" y2="341.562" stroke="black"/>
<line x1="92.2828" y1="-144.22" x2="-266.22" y2="214.283" stroke="black"/>
<line x1="177.136" y1="-59.3671" x2="-181.367" y2="299.136" stroke="black"/>
<line x1="261.988" y1="25.4856" x2="-96.5148" y2="383.989" stroke="black"/>
<line x1="63.9986" y1="-172.504" x2="-294.505" y2="185.999" stroke="black"/>
<line x1="148.852" y1="-87.6516" x2="-209.652" y2="270.852" stroke="black"/>
<line x1="233.704" y1="-2.79879" x2="-124.799" y2="355.704" stroke="black"/>
<line x1="106.425" y1="-130.078" x2="-252.078" y2="228.425" stroke="black"/>
<line x1="191.278" y1="-45.2251" x2="-167.225" y2="313.278" stroke="black"/>
<line x1="276.13" y1="39.6277" x2="-82.3727" y2="398.131" stroke="black"/>
<line x1="78.1407" y1="-158.362" x2="-280.362" y2="200.141" stroke="black"/>
<line x1="162.994" y1="-73.5095" x2="-195.509" y2="284.994" stroke="black"/>
<line x1="247.846" y1="11.3435" x2="-110.657" y2="369.847" stroke="black"/>
<line x1="120.567" y1="-115.936" x2="-237.936" y2="242.567" stroke="black"/>
<line x1="205.42" y1="-31.083" x2="-153.083" y2="327.42" stroke="black"/>
<line x1="290.273" y1="53.7698" x2="-68.2301" y2="412.273" stroke="black"/>
<line x1="52.6851" y1="-183.818" x2="-305.818" y2="174.685" stroke="black"/>
<line x1="137.538" y1="-98.9653" x2="-220.965" y2="259.538" stroke="black"/>
<line x1="222.391" y1="-14.1125" x2="-136.112" y2="344.391" stroke="black"/>
<line x1="95.1114" y1="-141.392" x2="-263.392" y2="217.112" stroke="black"/>
<line x1="179.964" y1="-56.5388" x2="-178.539" y2="301.964" stroke="black"/>
<line x1="264.817" y1="28.314" x2="-93.6862" y2="386.817" stroke="black"/>
<line x1="66.8272" y1="-169.676" x2="-291.676" y2="188.827" stroke="black"/>
<line x1="151.68" y1="-84.823" x2="-206.823" y2="273.68" stroke="black"/>
<line x1="236.533" y1="0.0298229" x2="-121.97" y2="358.533" stroke="black"/>
<line x1="109.253" y1="-127.249" x2="-249.25" y2="231.254" stroke="black"/>
<line x1="194.106" y1="-42.3967" x2="-164.397" y2="316.106" stroke="black"/>
<line x1="278.959" y1="42.4561" x2="-79.5441" y2="400.959" stroke="black"/>
<line x1="80.9693" y1="-155.534" x2="-277.534" y2="202.969" stroke="black"/>
<line x1="165.822" y1="-70.6809" x2="-192.681" y2="287.822" stroke="black"/>
<line x1="250.675" y1="14.1719" x2="-107.828" y2="372.675" stroke="black"/>
<line x1="123.396" y1="-113.107" x2="-235.108" y2="245.396" stroke="black"/>
<line x1="208.249" y1="-28.2546" x2="-150.255" y2="330.249" stroke="black"/>
<line x1="293.101" y1="56.5982" x2="-65.402" y2="415.101" stroke="black"/>
<line x1="55.5132" y1="-180.99" x2="-302.99" y2="177.513" stroke="black"/>
<line x1="140.366" y1="-96.1367" x2="-218.137" y2="262.366" stroke="black"/>
<line x1="225.219" y1="-11.2839" x2="-133.284" y2="347.219" stroke="black"/>
<line x1="97.94" y1="-138.563" x2="-260.563" y2="219.94" stroke="black"/>
<line x1="182.793" y1="-53.7104" x2="-175.711" y2="304.793" stroke="black"/>
<line x1="267.646" y1="31.1424" x2="-90.8576" y2="389.646" stroke="black"/>
<line x1="69.6553" y1="-166.847" x2="-288.848" y2="191.656" stroke="black"/>
<line x1="154.508" y1="-81.9946" x2="-203.995" y2="276.509" stroke="black"/>
<line x1="239.361" y1="2.85819" x2="-119.142" y2="361.361" stroke="black"/>
<line x1="112.082" y1="-124.421" x2="-246.421" y2="234.082" stroke="black"/>
<line x1="196.935" y1="-39.5683" x2="-161.569" y2="318.935" stroke="black"/>
<line x1="281.788" y1="45.2845" x2="-76.7155" y2="403.788" stroke="black"/>
<line x1="83.7974" y1="-152.705" x2="-274.706" y2="205.798" stroke="black"/>
<line x1="168.65" y1="-67.8525" x2="-189.853" y2="290.651" stroke="black"/>
<line x1="253.503" y1="17.0003" x2="-105" y2="375.503" stroke="black"/>
<line x1="126.224" y1="-110.279" x2="-232.279" y2="248.224" stroke="black"/>
<line x1="211.077" y1="-25.426" x2="-147.426" y2="333.077" stroke="black"/>
<line x1="295.93" y1="59.4268" x2="-62.5734" y2="417.93" stroke="black"/>
<line x1="58.3418" y1="-178.161" x2="-300.161" y2="180.342" stroke="black"/>
<line x1="143.194" y1="-93.3083" x2="-215.309" y2="265.195" stroke="black"/>
<line x1="228.047" y1="-8.45553" x2="-130.456" y2="350.048" stroke="black"/>
<line x1="100.768" y1="-135.735" x2="-257.735" y2="222.768" stroke="black"/>
<line x1="185.621" y1="-50.882" x2="-172.882" y2="307.621" stroke="black"/>
<line x1="270.474" y1="33.971" x2="-88.0295" y2="392.474" stroke="black"/>
<line x1="72.4839" y1="-164.019" x2="-286.019" y2="194.484" stroke="black"/>
<line x1="157.337" y1="-79.1662" x2="-201.166" y2="279.337" stroke="black"/>
<line x1="242.189" y1="5.68656" x2="-116.314" y2="364.19" stroke="black"/>
<line x1="114.91" y1="-121.593" x2="-243.593" y2="236.91" stroke="black"/>
<line x1="199.763" y1="-36.7397" x2="-158.74" y2="321.763" stroke="black"/>
<line x1="284.616" y1="48.1131" x2="-73.8874" y2="406.616" stroke="black"/>
<line x1="86.626" y1="-149.877" x2="-271.877" y2="208.626" stroke="black"/>
<line x1="171.479" y1="-65.0241" x2="-187.024" y2="293.479" stroke="black"/>
<line x1="256.332" y1="19.8287" x2="-102.172" y2="378.332" stroke="black"/>
<line x1="129.052" y1="-107.45" x2="-229.451" y2="251.053" stroke="black"/>
<line x1="213.905" y1="-22.5976" x2="-144.598" y2="335.906" stroke="black"/>
<line x1="298.758" y1="62.2552" x2="-59.7453" y2="420.758" stroke="black"/>
<line x1="61.17" y1="-175.333" x2="-297.333" y2="183.17" stroke="black"/>
<line x1="146.023" y1="-90.4799" x2="-212.48" y2="268.023" stroke="black"/>
<line x1="230.876" y1="-5.62716" x2="-127.627" y2="352.876" stroke="black"/>
<line x1="103.597" y1="-132.906" x2="-254.906" y2="225.597" stroke="black"/>
<line x1="188.449" y1="-48.0534" x2="-170.054" y2="310.45" stroke="black"/>
<line x1="273.302" y1="36.7994" x2="-85.2009" y2="395.302" stroke="black"/>
<line x1="75.3125" y1="-161.191" x2="-283.191" y2="197.312" stroke="black"/>
<line x1="160.165" y1="-76.3379" x2="-198.338" y2="282.165" stroke="black"/>
<line x1="245.018" y1="8.51493" x2="-113.485" y2="367.018" stroke="black"/>
<line x1="117.739" y1="-118.764" x2="-240.764" y2="239.739" stroke="black"/>
<line x1="202.591" y1="-33.9113" x2="-155.912" y2="324.592" stroke="black"/>
<line x1="287.444" y1="50.9414" x2="-71.0588" y2="409.445" stroke="black"/>
<line x1="89.4546" y1="-147.049" x2="-269.048" y2="211.455" stroke="black"/>
<line x1="174.307" y1="-62.1958" x2="-184.196" y2="296.307" stroke="black"/>
<line x1="259.16" y1="22.6573" x2="-99.3429" y2="381.16" stroke="black"/>
<line x1="131.881" y1="-104.622" x2="-226.622" y2="253.881" stroke="black"/>
<line x1="216.734" y1="-19.7692" x2="-141.769" y2="338.734" stroke="black"/>
<line x1="301.586" y1="65.0835" x2="-56.9167" y2="423.587" stroke="black"/>
</g>
</svg>
