<svg width="142" height="178" viewBox="0 0 142 178" fill="none" xmlns="http://www.w3.org/2000/svg">
<g style="mix-blend-mode:multiply">
<path d="M141.854 141H9V177.939H141.854V141Z" fill="#0E88DE"/>
</g>
<mask id="mask0" mask-type="alpha" maskUnits="userSpaceOnUse" x="0" y="0" width="136" height="169">
<g style="mix-blend-mode:multiply">
<path d="M136 132.061V169H0V0H132.854V36.9386H47.4306V65.4271H122.69V101.159H47.4306V132.061H136Z" fill="#D91D1D"/>
</g>
</mask>
<g mask="url(#mask0)">
<line x1="123.74" y1="-220.263" x2="-234.763" y2="138.24" stroke="black"/>
<line x1="208.593" y1="-135.41" x2="-149.91" y2="223.093" stroke="black"/>
<line x1="293.446" y1="-50.5576" x2="-65.0573" y2="307.946" stroke="black"/>
<line x1="166.167" y1="-177.837" x2="-192.337" y2="180.667" stroke="black"/>
<line x1="251.02" y1="-92.9838" x2="-107.484" y2="265.519" stroke="black"/>
<line x1="335.872" y1="-8.13107" x2="-22.631" y2="350.372" stroke="black"/>
<line x1="137.882" y1="-206.121" x2="-220.621" y2="152.382" stroke="black"/>
<line x1="222.735" y1="-121.268" x2="-135.768" y2="237.235" stroke="black"/>
<line x1="307.588" y1="-36.4155" x2="-50.9152" y2="322.088" stroke="black"/>
<line x1="180.309" y1="-163.695" x2="-178.195" y2="194.809" stroke="black"/>
<line x1="265.162" y1="-78.8418" x2="-93.3415" y2="279.661" stroke="black"/>
<line x1="350.014" y1="6.01102" x2="-8.48893" y2="364.514" stroke="black"/>
<line x1="152.024" y1="-191.979" x2="-206.479" y2="166.524" stroke="black"/>
<line x1="236.877" y1="-107.126" x2="-121.626" y2="251.377" stroke="black"/>
<line x1="321.73" y1="-22.2732" x2="-36.7731" y2="336.23" stroke="black"/>
<line x1="194.451" y1="-149.552" x2="-164.052" y2="208.951" stroke="black"/>
<line x1="279.304" y1="-64.6997" x2="-79.1994" y2="293.803" stroke="black"/>
<line x1="364.157" y1="20.1531" x2="5.65364" y2="378.656" stroke="black"/>
<line x1="126.569" y1="-217.435" x2="-231.934" y2="141.068" stroke="black"/>
<line x1="211.421" y1="-132.582" x2="-147.082" y2="225.921" stroke="black"/>
<line x1="296.274" y1="-47.7292" x2="-62.2287" y2="310.774" stroke="black"/>
<line x1="168.995" y1="-175.008" x2="-189.508" y2="183.495" stroke="black"/>
<line x1="253.848" y1="-90.1555" x2="-104.655" y2="268.348" stroke="black"/>
<line x1="338.701" y1="-5.3027" x2="-19.8024" y2="353.2" stroke="black"/>
<line x1="140.711" y1="-203.293" x2="-217.792" y2="155.21" stroke="black"/>
<line x1="225.564" y1="-118.44" x2="-132.94" y2="240.063" stroke="black"/>
<line x1="310.417" y1="-33.5869" x2="-48.0866" y2="324.916" stroke="black"/>
<line x1="183.137" y1="-160.866" x2="-175.366" y2="197.637" stroke="black"/>
<line x1="267.99" y1="-76.0134" x2="-90.5129" y2="282.49" stroke="black"/>
<line x1="352.843" y1="8.83939" x2="-5.66032" y2="367.343" stroke="black"/>
<line x1="154.853" y1="-189.15" x2="-203.65" y2="169.353" stroke="black"/>
<line x1="239.706" y1="-104.298" x2="-118.798" y2="254.206" stroke="black"/>
<line x1="324.559" y1="-19.4448" x2="-33.9445" y2="339.058" stroke="black"/>
<line x1="197.279" y1="-146.724" x2="-161.224" y2="211.779" stroke="black"/>
<line x1="282.132" y1="-61.8713" x2="-76.3708" y2="296.632" stroke="black"/>
<line x1="366.985" y1="22.9815" x2="8.48177" y2="381.485" stroke="black"/>
<line x1="129.397" y1="-214.606" x2="-229.106" y2="143.897" stroke="black"/>
<line x1="214.25" y1="-129.753" x2="-144.253" y2="228.75" stroke="black"/>
<line x1="299.103" y1="-44.9006" x2="-59.4006" y2="313.603" stroke="black"/>
<line x1="171.824" y1="-172.18" x2="-186.679" y2="186.323" stroke="black"/>
<line x1="256.676" y1="-87.3271" x2="-101.827" y2="271.176" stroke="black"/>
<line x1="341.529" y1="-2.47433" x2="-16.9738" y2="356.029" stroke="black"/>
<line x1="143.539" y1="-200.464" x2="-214.964" y2="158.039" stroke="black"/>
<line x1="228.392" y1="-115.611" x2="-130.111" y2="242.892" stroke="black"/>
<line x1="313.245" y1="-30.7585" x2="-45.2585" y2="327.745" stroke="black"/>
<line x1="185.966" y1="-158.038" x2="-172.537" y2="200.465" stroke="black"/>
<line x1="270.818" y1="-73.185" x2="-87.6847" y2="285.318" stroke="black"/>
<line x1="355.671" y1="11.6678" x2="-2.83171" y2="370.171" stroke="black"/>
<line x1="157.681" y1="-186.322" x2="-200.822" y2="172.181" stroke="black"/>
<line x1="242.534" y1="-101.469" x2="-115.969" y2="257.034" stroke="black"/>
<line x1="327.387" y1="-16.6164" x2="-31.1159" y2="341.887" stroke="black"/>
<line x1="200.108" y1="-143.896" x2="-158.395" y2="214.607" stroke="black"/>
<line x1="284.96" y1="-59.0427" x2="-73.5426" y2="299.46" stroke="black"/>
<line x1="369.814" y1="25.8101" x2="11.3104" y2="384.313" stroke="black"/>
<line x1="132.226" y1="-211.778" x2="-226.278" y2="146.725" stroke="black"/>
<line x1="217.078" y1="-126.925" x2="-141.425" y2="231.578" stroke="black"/>
<line x1="301.931" y1="-42.0722" x2="-56.5719" y2="316.431" stroke="black"/>
<line x1="174.652" y1="-169.352" x2="-183.851" y2="189.152" stroke="black"/>
<line x1="259.505" y1="-84.4987" x2="-98.9982" y2="274.004" stroke="black"/>
<line x1="344.357" y1="0.354286" x2="-14.1457" y2="358.857" stroke="black"/>
<line x1="146.368" y1="-197.636" x2="-212.135" y2="160.867" stroke="black"/>
<line x1="231.221" y1="-112.783" x2="-127.282" y2="245.72" stroke="black"/>
<line x1="316.073" y1="-27.9301" x2="-42.4299" y2="330.573" stroke="black"/>
<line x1="188.794" y1="-155.209" x2="-169.709" y2="203.294" stroke="black"/>
<line x1="273.647" y1="-70.3564" x2="-84.8561" y2="288.147" stroke="black"/>
<line x1="358.5" y1="14.4964" x2="-0.00358245" y2="373" stroke="black"/>
<line x1="160.51" y1="-183.494" x2="-197.993" y2="175.01" stroke="black"/>
<line x1="245.363" y1="-98.6408" x2="-113.14" y2="259.862" stroke="black"/>
<line x1="330.215" y1="-13.788" x2="-28.2878" y2="344.715" stroke="black"/>
<line x1="202.936" y1="-141.067" x2="-155.567" y2="217.436" stroke="black"/>
<line x1="287.789" y1="-56.2143" x2="-70.714" y2="302.289" stroke="black"/>
<line x1="372.642" y1="28.6385" x2="14.1385" y2="387.142" stroke="black"/>
<line x1="135.054" y1="-208.949" x2="-223.449" y2="149.554" stroke="black"/>
<line x1="219.907" y1="-124.097" x2="-138.596" y2="234.406" stroke="black"/>
<line x1="304.76" y1="-39.2439" x2="-53.7433" y2="319.259" stroke="black"/>
<line x1="177.481" y1="-166.523" x2="-181.023" y2="191.98" stroke="black"/>
<line x1="262.333" y1="-81.6701" x2="-96.1701" y2="276.833" stroke="black"/>
<line x1="347.186" y1="3.18265" x2="-11.3171" y2="361.686" stroke="black"/>
<line x1="149.196" y1="-194.807" x2="-209.307" y2="163.696" stroke="black"/>
<line x1="234.049" y1="-109.955" x2="-124.454" y2="248.549" stroke="black"/>
<line x1="318.902" y1="-25.1018" x2="-39.6012" y2="333.401" stroke="black"/>
<line x1="191.623" y1="-152.381" x2="-166.881" y2="206.122" stroke="black"/>
<line x1="276.475" y1="-67.528" x2="-82.028" y2="290.975" stroke="black"/>
<line x1="361.328" y1="17.3247" x2="2.82503" y2="375.828" stroke="black"/>
<line x1="163.338" y1="-180.665" x2="-195.165" y2="177.838" stroke="black"/>
<line x1="248.191" y1="-95.8125" x2="-110.312" y2="262.691" stroke="black"/>
<line x1="333.044" y1="-10.9594" x2="-25.4591" y2="347.544" stroke="black"/>
<line x1="205.765" y1="-138.239" x2="-152.738" y2="220.264" stroke="black"/>
<line x1="290.618" y1="-53.3859" x2="-67.8854" y2="305.117" stroke="black"/>
<line x1="375.47" y1="31.4668" x2="16.9671" y2="389.97" stroke="black"/>
</g>
</svg>
