<svg width="60" height="189" viewBox="0 0 60 189" fill="none" xmlns="http://www.w3.org/2000/svg">
<path d="M12 0H60V117H12V0Z" fill="black"/>
<mask id="mask0" mask-type="alpha" maskUnits="userSpaceOnUse" x="0" y="20" width="48" height="169">
<path d="M0 20H48V189H0V20Z" fill="black"/>
</mask>
<g mask="url(#mask0)">
<line x1="45.7095" y1="-5.79366" x2="-312.794" y2="352.709" stroke="black"/>
<line x1="130.562" y1="79.0591" x2="-227.941" y2="437.562" stroke="black"/>
<line x1="3.28275" y1="-48.2199" x2="-355.22" y2="310.283" stroke="black"/>
<line x1="88.1358" y1="36.6329" x2="-270.367" y2="395.136" stroke="black"/>
<line x1="172.988" y1="121.486" x2="-185.515" y2="479.989" stroke="black"/>
<line x1="59.8516" y1="8.34843" x2="-298.652" y2="366.852" stroke="black"/>
<line x1="144.704" y1="93.2012" x2="-213.799" y2="451.704" stroke="black"/>
<line x1="17.4248" y1="-34.0778" x2="-341.078" y2="324.425" stroke="black"/>
<line x1="102.278" y1="50.7749" x2="-256.225" y2="409.278" stroke="black"/>
<line x1="187.13" y1="135.628" x2="-171.373" y2="494.131" stroke="black"/>
<line x1="73.9937" y1="22.4905" x2="-284.509" y2="380.994" stroke="black"/>
<line x1="158.846" y1="107.344" x2="-199.657" y2="465.847" stroke="black"/>
<line x1="31.5669" y1="-19.9358" x2="-326.936" y2="338.567" stroke="black"/>
<line x1="116.42" y1="64.917" x2="-242.083" y2="423.42" stroke="black"/>
<line x1="201.273" y1="149.77" x2="-157.23" y2="508.273" stroke="black"/>
<line x1="48.5376" y1="-2.96529" x2="-309.965" y2="355.538" stroke="black"/>
<line x1="133.391" y1="81.8875" x2="-225.112" y2="440.391" stroke="black"/>
<line x1="6.11137" y1="-45.3916" x2="-352.392" y2="313.112" stroke="black"/>
<line x1="90.9639" y1="39.4612" x2="-267.539" y2="397.964" stroke="black"/>
<line x1="175.817" y1="124.314" x2="-182.686" y2="482.817" stroke="black"/>
<line x1="62.6797" y1="11.177" x2="-295.823" y2="369.68" stroke="black"/>
<line x1="147.533" y1="96.0298" x2="-210.97" y2="454.533" stroke="black"/>
<line x1="20.2535" y1="-31.2495" x2="-338.25" y2="327.254" stroke="black"/>
<line x1="105.106" y1="53.6033" x2="-253.397" y2="412.106" stroke="black"/>
<line x1="189.959" y1="138.456" x2="-168.544" y2="496.959" stroke="black"/>
<line x1="76.8218" y1="25.3191" x2="-281.681" y2="383.822" stroke="black"/>
<line x1="161.675" y1="110.172" x2="-196.828" y2="468.675" stroke="black"/>
<line x1="34.3955" y1="-17.1074" x2="-324.108" y2="341.396" stroke="black"/>
<line x1="119.249" y1="67.7454" x2="-239.255" y2="426.249" stroke="black"/>
<line x1="204.101" y1="152.598" x2="-154.402" y2="511.101" stroke="black"/>
<line x1="51.3662" y1="-0.136681" x2="-307.137" y2="358.366" stroke="black"/>
<line x1="136.219" y1="84.7161" x2="-222.284" y2="443.219" stroke="black"/>
<line x1="8.93998" y1="-42.5632" x2="-349.563" y2="315.94" stroke="black"/>
<line x1="93.7925" y1="42.2896" x2="-264.711" y2="400.793" stroke="black"/>
<line x1="178.646" y1="127.142" x2="-179.858" y2="485.646" stroke="black"/>
<line x1="65.5083" y1="14.0054" x2="-292.995" y2="372.509" stroke="black"/>
<line x1="150.361" y1="98.8582" x2="-208.142" y2="457.361" stroke="black"/>
<line x1="23.0821" y1="-28.4211" x2="-335.421" y2="330.082" stroke="black"/>
<line x1="107.935" y1="56.4317" x2="-250.569" y2="414.935" stroke="black"/>
<line x1="192.788" y1="141.284" x2="-165.715" y2="499.788" stroke="black"/>
<line x1="79.6504" y1="28.1475" x2="-278.853" y2="386.651" stroke="black"/>
<line x1="164.503" y1="113" x2="-194" y2="471.503" stroke="black"/>
<line x1="37.2242" y1="-14.279" x2="-321.279" y2="344.224" stroke="black"/>
<line x1="122.077" y1="70.574" x2="-236.426" y2="429.077" stroke="black"/>
<line x1="206.93" y1="155.427" x2="-151.573" y2="513.93" stroke="black"/>
<line x1="54.1944" y1="2.69169" x2="-304.309" y2="361.195" stroke="black"/>
<line x1="139.047" y1="87.5445" x2="-219.456" y2="446.048" stroke="black"/>
<line x1="11.7681" y1="-39.7348" x2="-346.735" y2="318.768" stroke="black"/>
<line x1="96.6211" y1="45.118" x2="-261.882" y2="403.621" stroke="black"/>
<line x1="181.474" y1="129.971" x2="-177.029" y2="488.474" stroke="black"/>
<line x1="68.337" y1="16.8338" x2="-290.166" y2="375.337" stroke="black"/>
<line x1="153.189" y1="101.687" x2="-205.314" y2="460.19" stroke="black"/>
<line x1="25.9102" y1="-25.5927" x2="-332.593" y2="332.91" stroke="black"/>
<line x1="110.763" y1="59.2603" x2="-247.74" y2="417.763" stroke="black"/>
<line x1="195.616" y1="144.113" x2="-162.887" y2="502.616" stroke="black"/>
<line x1="82.479" y1="30.9759" x2="-276.024" y2="389.479" stroke="black"/>
<line x1="167.332" y1="115.829" x2="-191.172" y2="474.332" stroke="black"/>
<line x1="40.0523" y1="-11.4504" x2="-318.451" y2="347.053" stroke="black"/>
<line x1="124.905" y1="73.4024" x2="-233.598" y2="431.906" stroke="black"/>
<line x1="209.758" y1="158.255" x2="-148.745" y2="516.758" stroke="black"/>
<line x1="57.023" y1="5.52006" x2="-301.48" y2="364.023" stroke="black"/>
<line x1="141.876" y1="90.3728" x2="-216.627" y2="448.876" stroke="black"/>
<line x1="14.5967" y1="-36.9062" x2="-343.906" y2="321.597" stroke="black"/>
<line x1="99.4493" y1="47.9466" x2="-259.054" y2="406.45" stroke="black"/>
<line x1="184.302" y1="132.799" x2="-174.201" y2="491.302" stroke="black"/>
<line x1="71.1651" y1="19.6621" x2="-287.338" y2="378.165" stroke="black"/>
<line x1="156.018" y1="104.515" x2="-202.485" y2="463.018" stroke="black"/>
<line x1="28.7388" y1="-22.7641" x2="-329.764" y2="335.739" stroke="black"/>
<line x1="113.591" y1="62.0887" x2="-244.912" y2="420.592" stroke="black"/>
<line x1="198.444" y1="146.941" x2="-160.059" y2="505.445" stroke="black"/>
<line x1="0.454628" y1="-51.0485" x2="-358.048" y2="307.455" stroke="black"/>
<line x1="85.3072" y1="33.8042" x2="-273.196" y2="392.307" stroke="black"/>
<line x1="170.16" y1="118.657" x2="-188.343" y2="477.16" stroke="black"/>
<line x1="42.8809" y1="-8.62203" x2="-315.622" y2="349.881" stroke="black"/>
<line x1="127.734" y1="76.2308" x2="-230.769" y2="434.734" stroke="black"/>
<line x1="212.586" y1="161.084" x2="-145.917" y2="519.587" stroke="black"/>
</g>
</svg>
