<svg width="156" height="169" viewBox="0 0 156 169" fill="none" xmlns="http://www.w3.org/2000/svg">
<g style="mix-blend-mode:multiply">
<path d="M74.0093 124.094H47.8884V169H0V0H77.3953C92.7132 0 106.015 2.57524 117.302 7.72572C128.589 12.7152 137.296 19.9581 143.423 29.4543C149.55 38.7895 152.614 49.8148 152.614 62.53C152.614 74.7624 149.712 85.4657 143.907 94.64C138.264 103.653 130.121 110.735 119.479 115.886L156 169H104.726L74.0093 124.094ZM104.242 62.53C104.242 54.6433 101.743 48.5271 96.7442 44.1814C91.7457 39.8357 84.3287 37.6629 74.493 37.6629H47.8884V87.1557H74.493C84.3287 87.1557 91.7457 85.0633 96.7442 80.8786C101.743 76.5329 104.242 70.4167 104.242 62.53Z" fill="#0E88DE"/>
<path d="M74.0093 124.094H47.8884V169H0V0H77.3953C92.7132 0 106.015 2.57524 117.302 7.72572C128.589 12.7152 137.296 19.9581 143.423 29.4543C149.55 38.7895 152.614 49.8148 152.614 62.53C152.614 74.7624 149.712 85.4657 143.907 94.64C138.264 103.653 130.121 110.735 119.479 115.886L156 169H104.726L74.0093 124.094ZM104.242 62.53C104.242 54.6433 101.743 48.5271 96.7442 44.1814C91.7457 39.8357 84.3287 37.6629 74.493 37.6629H47.8884V87.1557H74.493C84.3287 87.1557 91.7457 85.0633 96.7442 80.8786C101.743 76.5329 104.242 70.4167 104.242 62.53Z" fill="url(#paint0_linear)"/>
</g>
<defs>
<linearGradient id="paint0_linear" x1="156" y1="227" x2="1.80676e-06" y2="17.5" gradientUnits="userSpaceOnUse">
<stop stop-color="#310101"/>
<stop offset="1" stop-color="white" stop-opacity="0"/>
</linearGradient>
</defs>
</svg>
