<svg width="600" height="391" viewBox="0 0 600 391" fill="none" xmlns="http://www.w3.org/2000/svg">
<circle cx="309.254" cy="4.62725" r="4.62725" fill="#0E88DE"/>
<circle cx="309.254" cy="194.627" r="4.62725" fill="#0E88DE"/>
<circle cx="309.254" cy="99.6273" r="4.62725" fill="#0E88DE"/>
<circle cx="309.254" cy="289.627" r="4.62725" fill="#0E88DE"/>
<circle cx="4.62725" cy="4.62725" r="4.62725" fill="#0E88DE"/>
<circle cx="4.62725" cy="194.627" r="4.62725" fill="#0E88DE"/>
<circle cx="4.62725" cy="99.6273" r="4.62725" fill="#0E88DE"/>
<circle cx="4.62725" cy="289.627" r="4.62725" fill="#0E88DE"/>
<circle cx="461.954" cy="4.62725" r="4.62725" fill="#0E88DE"/>
<circle cx="461.954" cy="194.627" r="4.62725" fill="#0E88DE"/>
<circle cx="461.954" cy="99.6273" r="4.62725" fill="#0E88DE"/>
<circle cx="461.954" cy="289.627" r="4.62725" fill="#0E88DE"/>
<circle cx="157.326" cy="4.62725" r="4.62725" fill="#0E88DE"/>
<circle cx="157.326" cy="194.627" r="4.62725" fill="#0E88DE"/>
<circle cx="157.326" cy="99.6273" r="4.62725" fill="#0E88DE"/>
<circle cx="157.326" cy="289.627" r="4.62725" fill="#0E88DE"/>
<circle cx="309.255" cy="80.9769" r="4.62725" fill="#0E88DE"/>
<circle cx="309.255" cy="270.977" r="4.62725" fill="#0E88DE"/>
<circle cx="309.255" cy="175.977" r="4.62725" fill="#0E88DE"/>
<circle cx="309.255" cy="365.977" r="4.62725" fill="#0E88DE"/>
<circle cx="309.255" cy="385.627" r="4.62725" fill="#0E88DE"/>
<circle cx="4.62725" cy="80.9769" r="4.62725" fill="#0E88DE"/>
<circle cx="4.62725" cy="270.977" r="4.62725" fill="#0E88DE"/>
<circle cx="4.62725" cy="175.977" r="4.62725" fill="#0E88DE"/>
<circle cx="4.62725" cy="365.977" r="4.62725" fill="#0E88DE"/>
<circle cx="4.62725" cy="385.627" r="4.62725" fill="#0E88DE"/>
<circle cx="461.954" cy="80.9769" r="4.62725" fill="#0E88DE"/>
<circle cx="461.954" cy="270.977" r="4.62725" fill="#0E88DE"/>
<circle cx="461.954" cy="175.977" r="4.62725" fill="#0E88DE"/>
<circle cx="461.954" cy="365.977" r="4.62725" fill="#0E88DE"/>
<circle cx="461.954" cy="385.627" r="4.62725" fill="#0E88DE"/>
<circle cx="157.326" cy="80.9769" r="4.62725" fill="#0E88DE"/>
<circle cx="157.326" cy="270.977" r="4.62725" fill="#0E88DE"/>
<circle cx="157.326" cy="175.977" r="4.62725" fill="#0E88DE"/>
<circle cx="157.326" cy="365.977" r="4.62725" fill="#0E88DE"/>
<circle cx="157.326" cy="385.627" r="4.62725" fill="#0E88DE"/>
<circle cx="385.604" cy="4.62725" r="4.62725" fill="#0E88DE"/>
<circle cx="385.604" cy="194.627" r="4.62725" fill="#0E88DE"/>
<circle cx="385.604" cy="99.6273" r="4.62725" fill="#0E88DE"/>
<circle cx="385.604" cy="289.627" r="4.62725" fill="#0E88DE"/>
<circle cx="80.9769" cy="4.62725" r="4.62725" fill="#0E88DE"/>
<circle cx="80.9769" cy="194.627" r="4.62725" fill="#0E88DE"/>
<circle cx="80.9769" cy="99.6273" r="4.62725" fill="#0E88DE"/>
<circle cx="80.9769" cy="289.627" r="4.62725" fill="#0E88DE"/>
<circle cx="538.303" cy="309.254" r="4.62725" fill="#0E88DE"/>
<circle cx="538.304" cy="4.62725" r="4.62725" fill="#0E88DE"/>
<circle cx="232.905" cy="4.62725" r="4.62725" fill="#0E88DE"/>
<circle cx="232.905" cy="194.627" r="4.62725" fill="#0E88DE"/>
<circle cx="232.905" cy="99.6273" r="4.62725" fill="#0E88DE"/>
<circle cx="232.905" cy="289.627" r="4.62725" fill="#0E88DE"/>
<circle cx="538.303" cy="157.326" r="4.62725" fill="#0E88DE"/>
<circle cx="385.604" cy="80.9769" r="4.62725" fill="#0E88DE"/>
<circle cx="385.604" cy="270.977" r="4.62725" fill="#0E88DE"/>
<circle cx="385.604" cy="175.977" r="4.62725" fill="#0E88DE"/>
<circle cx="385.604" cy="365.977" r="4.62725" fill="#0E88DE"/>
<circle cx="385.604" cy="385.627" r="4.62725" fill="#0E88DE"/>
<circle cx="80.9769" cy="80.9769" r="4.62725" fill="#0E88DE"/>
<circle cx="80.9769" cy="270.977" r="4.62725" fill="#0E88DE"/>
<circle cx="80.9769" cy="175.977" r="4.62725" fill="#0E88DE"/>
<circle cx="80.9769" cy="365.977" r="4.62725" fill="#0E88DE"/>
<circle cx="80.9769" cy="385.627" r="4.62725" fill="#0E88DE"/>
<circle cx="538.303" cy="385.604" r="4.62725" fill="#0E88DE"/>
<circle cx="538.303" cy="80.9769" r="4.62725" fill="#0E88DE"/>
<circle cx="232.905" cy="80.9769" r="4.62725" fill="#0E88DE"/>
<circle cx="232.905" cy="270.977" r="4.62725" fill="#0E88DE"/>
<circle cx="232.905" cy="175.977" r="4.62725" fill="#0E88DE"/>
<circle cx="232.905" cy="365.977" r="4.62725" fill="#0E88DE"/>
<circle cx="232.905" cy="385.627" r="4.62725" fill="#0E88DE"/>
<circle cx="538.303" cy="232.905" r="4.62725" fill="#0E88DE"/>
<ellipse cx="309.255" cy="23.5219" rx="4.62725" ry="4.24164" fill="#0E88DE"/>
<ellipse cx="309.255" cy="213.522" rx="4.62725" ry="4.24164" fill="#0E88DE"/>
<ellipse cx="309.255" cy="118.522" rx="4.62725" ry="4.24164" fill="#0E88DE"/>
<ellipse cx="309.255" cy="308.522" rx="4.62725" ry="4.24164" fill="#0E88DE"/>
<ellipse cx="4.62725" cy="23.5219" rx="4.62725" ry="4.24164" fill="#0E88DE"/>
<ellipse cx="4.62725" cy="213.522" rx="4.62725" ry="4.24164" fill="#0E88DE"/>
<ellipse cx="4.62725" cy="118.522" rx="4.62725" ry="4.24164" fill="#0E88DE"/>
<ellipse cx="4.62725" cy="308.522" rx="4.62725" ry="4.24164" fill="#0E88DE"/>
<ellipse cx="461.954" cy="23.5219" rx="4.62725" ry="4.24164" fill="#0E88DE"/>
<ellipse cx="461.954" cy="213.522" rx="4.62725" ry="4.24164" fill="#0E88DE"/>
<ellipse cx="461.954" cy="118.522" rx="4.62725" ry="4.24164" fill="#0E88DE"/>
<ellipse cx="461.954" cy="308.522" rx="4.62725" ry="4.24164" fill="#0E88DE"/>
<ellipse cx="157.326" cy="23.5219" rx="4.62725" ry="4.24164" fill="#0E88DE"/>
<ellipse cx="157.326" cy="213.522" rx="4.62725" ry="4.24164" fill="#0E88DE"/>
<ellipse cx="157.326" cy="118.522" rx="4.62725" ry="4.24164" fill="#0E88DE"/>
<ellipse cx="157.326" cy="308.522" rx="4.62725" ry="4.24164" fill="#0E88DE"/>
<ellipse cx="385.604" cy="23.5219" rx="4.62725" ry="4.24164" fill="#0E88DE"/>
<ellipse cx="385.604" cy="213.522" rx="4.62725" ry="4.24164" fill="#0E88DE"/>
<ellipse cx="385.604" cy="118.522" rx="4.62725" ry="4.24164" fill="#0E88DE"/>
<ellipse cx="385.604" cy="308.522" rx="4.62725" ry="4.24164" fill="#0E88DE"/>
<ellipse cx="80.9769" cy="23.5219" rx="4.62725" ry="4.24164" fill="#0E88DE"/>
<ellipse cx="80.9769" cy="213.522" rx="4.62725" ry="4.24164" fill="#0E88DE"/>
<ellipse cx="80.9769" cy="118.522" rx="4.62725" ry="4.24164" fill="#0E88DE"/>
<ellipse cx="80.9769" cy="308.522" rx="4.62725" ry="4.24164" fill="#0E88DE"/>
<circle cx="538.303" cy="328.534" r="4.62725" fill="#0E88DE"/>
<ellipse cx="538.303" cy="23.5219" rx="4.62725" ry="4.24164" fill="#0E88DE"/>
<ellipse cx="232.905" cy="23.5219" rx="4.62725" ry="4.24164" fill="#0E88DE"/>
<ellipse cx="232.905" cy="213.522" rx="4.62725" ry="4.24164" fill="#0E88DE"/>
<ellipse cx="232.905" cy="118.522" rx="4.62725" ry="4.24164" fill="#0E88DE"/>
<ellipse cx="232.905" cy="308.522" rx="4.62725" ry="4.24164" fill="#0E88DE"/>
<circle cx="538.303" cy="175.836" r="4.62725" fill="#0E88DE"/>
<circle cx="538.303" cy="99.4856" r="4.62725" fill="#0E88DE"/>
<circle cx="538.303" cy="252.185" r="4.62725" fill="#0E88DE"/>
<circle cx="309.255" cy="43.1878" r="4.62725" fill="#0E88DE"/>
<circle cx="309.255" cy="233.188" r="4.62725" fill="#0E88DE"/>
<circle cx="309.255" cy="138.188" r="4.62725" fill="#0E88DE"/>
<circle cx="309.255" cy="328.188" r="4.62725" fill="#0E88DE"/>
<circle cx="4.62725" cy="43.1878" r="4.62725" fill="#0E88DE"/>
<circle cx="4.62725" cy="233.188" r="4.62725" fill="#0E88DE"/>
<circle cx="4.62725" cy="138.188" r="4.62725" fill="#0E88DE"/>
<circle cx="4.62725" cy="328.188" r="4.62725" fill="#0E88DE"/>
<circle cx="461.954" cy="43.1878" r="4.62725" fill="#0E88DE"/>
<circle cx="461.954" cy="233.188" r="4.62725" fill="#0E88DE"/>
<circle cx="461.954" cy="138.188" r="4.62725" fill="#0E88DE"/>
<circle cx="461.954" cy="328.188" r="4.62725" fill="#0E88DE"/>
<circle cx="157.326" cy="43.1878" r="4.62725" fill="#0E88DE"/>
<circle cx="157.326" cy="233.188" r="4.62725" fill="#0E88DE"/>
<circle cx="157.326" cy="138.188" r="4.62725" fill="#0E88DE"/>
<circle cx="157.326" cy="328.188" r="4.62725" fill="#0E88DE"/>
<circle cx="385.604" cy="43.1878" r="4.62725" fill="#0E88DE"/>
<circle cx="385.604" cy="233.188" r="4.62725" fill="#0E88DE"/>
<circle cx="385.604" cy="138.188" r="4.62725" fill="#0E88DE"/>
<circle cx="385.604" cy="328.188" r="4.62725" fill="#0E88DE"/>
<circle cx="80.9769" cy="43.1878" r="4.62725" fill="#0E88DE"/>
<circle cx="80.9769" cy="233.188" r="4.62725" fill="#0E88DE"/>
<circle cx="80.9769" cy="138.188" r="4.62725" fill="#0E88DE"/>
<circle cx="80.9769" cy="328.188" r="4.62725" fill="#0E88DE"/>
<circle cx="538.303" cy="347.815" r="4.62725" fill="#0E88DE"/>
<circle cx="538.303" cy="43.1878" r="4.62725" fill="#0E88DE"/>
<circle cx="232.905" cy="43.1878" r="4.62725" fill="#0E88DE"/>
<circle cx="232.905" cy="233.188" r="4.62725" fill="#0E88DE"/>
<circle cx="232.905" cy="138.188" r="4.62725" fill="#0E88DE"/>
<circle cx="232.905" cy="328.188" r="4.62725" fill="#0E88DE"/>
<circle cx="538.303" cy="195.116" r="4.62725" fill="#0E88DE"/>
<circle cx="538.303" cy="119.537" r="4.62725" fill="#0E88DE"/>
<circle cx="538.303" cy="271.465" r="4.62725" fill="#0E88DE"/>
<circle cx="309.255" cy="61.6966" r="4.62725" fill="#0E88DE"/>
<circle cx="309.255" cy="251.697" r="4.62725" fill="#0E88DE"/>
<circle cx="309.255" cy="156.697" r="4.62725" fill="#0E88DE"/>
<circle cx="309.255" cy="346.697" r="4.62725" fill="#0E88DE"/>
<circle cx="4.62725" cy="61.6966" r="4.62725" fill="#0E88DE"/>
<circle cx="4.62725" cy="251.697" r="4.62725" fill="#0E88DE"/>
<circle cx="4.62725" cy="156.697" r="4.62725" fill="#0E88DE"/>
<circle cx="4.62725" cy="346.697" r="4.62725" fill="#0E88DE"/>
<circle cx="461.954" cy="61.6966" r="4.62725" fill="#0E88DE"/>
<circle cx="461.954" cy="251.697" r="4.62725" fill="#0E88DE"/>
<circle cx="461.954" cy="156.697" r="4.62725" fill="#0E88DE"/>
<circle cx="461.954" cy="346.697" r="4.62725" fill="#0E88DE"/>
<circle cx="157.326" cy="61.6966" r="4.62725" fill="#0E88DE"/>
<circle cx="157.326" cy="251.697" r="4.62725" fill="#0E88DE"/>
<circle cx="157.326" cy="156.697" r="4.62725" fill="#0E88DE"/>
<circle cx="157.326" cy="346.697" r="4.62725" fill="#0E88DE"/>
<circle cx="385.604" cy="61.6966" r="4.62725" fill="#0E88DE"/>
<circle cx="385.604" cy="251.697" r="4.62725" fill="#0E88DE"/>
<circle cx="385.604" cy="156.697" r="4.62725" fill="#0E88DE"/>
<circle cx="385.604" cy="346.697" r="4.62725" fill="#0E88DE"/>
<circle cx="80.9769" cy="61.6966" r="4.62725" fill="#0E88DE"/>
<circle cx="80.9769" cy="251.697" r="4.62725" fill="#0E88DE"/>
<circle cx="80.9769" cy="156.697" r="4.62725" fill="#0E88DE"/>
<circle cx="80.9769" cy="346.697" r="4.62725" fill="#0E88DE"/>
<circle cx="538.303" cy="367.095" r="4.62725" fill="#0E88DE"/>
<circle cx="538.303" cy="61.6966" r="4.62725" fill="#0E88DE"/>
<circle cx="232.905" cy="61.6966" r="4.62725" fill="#0E88DE"/>
<circle cx="232.905" cy="251.697" r="4.62725" fill="#0E88DE"/>
<circle cx="232.905" cy="156.697" r="4.62725" fill="#0E88DE"/>
<circle cx="232.905" cy="346.697" r="4.62725" fill="#0E88DE"/>
<circle cx="538.303" cy="214.396" r="4.62725" fill="#0E88DE"/>
<circle cx="538.303" cy="138.046" r="4.62725" fill="#0E88DE"/>
<circle cx="538.303" cy="290.745" r="4.62725" fill="#0E88DE"/>
<circle cx="328.535" cy="4.62725" r="4.62725" fill="#0E88DE"/>
<circle cx="328.535" cy="194.627" r="4.62725" fill="#0E88DE"/>
<circle cx="328.535" cy="99.6273" r="4.62725" fill="#0E88DE"/>
<circle cx="328.535" cy="289.627" r="4.62725" fill="#0E88DE"/>
<ellipse cx="23.5219" cy="4.62725" rx="4.24164" ry="4.62725" fill="#0E88DE"/>
<ellipse cx="23.5219" cy="194.627" rx="4.24164" ry="4.62725" fill="#0E88DE"/>
<ellipse cx="23.5219" cy="99.6273" rx="4.24164" ry="4.62725" fill="#0E88DE"/>
<ellipse cx="23.5219" cy="289.627" rx="4.24164" ry="4.62725" fill="#0E88DE"/>
<circle cx="480.463" cy="4.62725" r="4.62725" fill="#0E88DE"/>
<circle cx="480.463" cy="194.627" r="4.62725" fill="#0E88DE"/>
<circle cx="480.463" cy="99.6273" r="4.62725" fill="#0E88DE"/>
<circle cx="480.463" cy="289.627" r="4.62725" fill="#0E88DE"/>
<circle cx="175.836" cy="4.62725" r="4.62725" fill="#0E88DE"/>
<circle cx="175.836" cy="194.627" r="4.62725" fill="#0E88DE"/>
<circle cx="175.836" cy="99.6273" r="4.62725" fill="#0E88DE"/>
<circle cx="175.836" cy="289.627" r="4.62725" fill="#0E88DE"/>
<circle cx="328.535" cy="80.9769" r="4.62725" fill="#0E88DE"/>
<circle cx="328.535" cy="270.977" r="4.62725" fill="#0E88DE"/>
<circle cx="328.535" cy="175.977" r="4.62725" fill="#0E88DE"/>
<circle cx="328.535" cy="365.977" r="4.62725" fill="#0E88DE"/>
<circle cx="328.535" cy="385.627" r="4.62725" fill="#0E88DE"/>
<ellipse cx="23.5219" cy="80.9769" rx="4.24164" ry="4.62725" fill="#0E88DE"/>
<ellipse cx="23.5219" cy="270.977" rx="4.24164" ry="4.62725" fill="#0E88DE"/>
<ellipse cx="23.5219" cy="175.977" rx="4.24164" ry="4.62725" fill="#0E88DE"/>
<ellipse cx="23.5219" cy="365.977" rx="4.24164" ry="4.62725" fill="#0E88DE"/>
<ellipse cx="23.5219" cy="385.627" rx="4.24164" ry="4.62725" fill="#0E88DE"/>
<circle cx="480.463" cy="80.9769" r="4.62725" fill="#0E88DE"/>
<circle cx="480.463" cy="270.977" r="4.62725" fill="#0E88DE"/>
<circle cx="480.463" cy="175.977" r="4.62725" fill="#0E88DE"/>
<circle cx="480.463" cy="365.977" r="4.62725" fill="#0E88DE"/>
<circle cx="480.463" cy="385.627" r="4.62725" fill="#0E88DE"/>
<circle cx="175.835" cy="80.9769" r="4.62725" fill="#0E88DE"/>
<circle cx="175.835" cy="270.977" r="4.62725" fill="#0E88DE"/>
<circle cx="175.835" cy="175.977" r="4.62725" fill="#0E88DE"/>
<circle cx="175.835" cy="365.977" r="4.62725" fill="#0E88DE"/>
<circle cx="175.835" cy="385.627" r="4.62725" fill="#0E88DE"/>
<circle cx="404.884" cy="4.62725" r="4.62725" fill="#0E88DE"/>
<circle cx="404.884" cy="194.627" r="4.62725" fill="#0E88DE"/>
<circle cx="404.884" cy="99.6273" r="4.62725" fill="#0E88DE"/>
<circle cx="404.884" cy="289.627" r="4.62725" fill="#0E88DE"/>
<circle cx="99.4856" cy="4.62725" r="4.62725" fill="#0E88DE"/>
<circle cx="99.4856" cy="194.627" r="4.62725" fill="#0E88DE"/>
<circle cx="99.4856" cy="99.6273" r="4.62725" fill="#0E88DE"/>
<circle cx="99.4856" cy="289.627" r="4.62725" fill="#0E88DE"/>
<circle cx="556.812" cy="309.254" r="4.62725" fill="#0E88DE"/>
<circle cx="556.812" cy="4.62725" r="4.62725" fill="#0E88DE"/>
<circle cx="252.185" cy="4.62725" r="4.62725" fill="#0E88DE"/>
<circle cx="252.185" cy="194.627" r="4.62725" fill="#0E88DE"/>
<circle cx="252.185" cy="99.6273" r="4.62725" fill="#0E88DE"/>
<circle cx="252.185" cy="289.627" r="4.62725" fill="#0E88DE"/>
<circle cx="556.812" cy="157.326" r="4.62725" fill="#0E88DE"/>
<circle cx="404.884" cy="80.9769" r="4.62725" fill="#0E88DE"/>
<circle cx="404.884" cy="270.977" r="4.62725" fill="#0E88DE"/>
<circle cx="404.884" cy="175.977" r="4.62725" fill="#0E88DE"/>
<circle cx="404.884" cy="365.977" r="4.62725" fill="#0E88DE"/>
<circle cx="404.884" cy="385.627" r="4.62725" fill="#0E88DE"/>
<circle cx="99.4859" cy="80.9769" r="4.62725" fill="#0E88DE"/>
<circle cx="99.4859" cy="270.977" r="4.62725" fill="#0E88DE"/>
<circle cx="99.4859" cy="175.977" r="4.62725" fill="#0E88DE"/>
<circle cx="99.4859" cy="365.977" r="4.62725" fill="#0E88DE"/>
<circle cx="99.4859" cy="385.627" r="4.62725" fill="#0E88DE"/>
<circle cx="556.812" cy="385.604" r="4.62725" fill="#0E88DE"/>
<circle cx="556.812" cy="80.9769" r="4.62725" fill="#0E88DE"/>
<circle cx="252.185" cy="80.9769" r="4.62725" fill="#0E88DE"/>
<circle cx="252.185" cy="270.977" r="4.62725" fill="#0E88DE"/>
<circle cx="252.185" cy="175.977" r="4.62725" fill="#0E88DE"/>
<circle cx="252.185" cy="365.977" r="4.62725" fill="#0E88DE"/>
<circle cx="252.185" cy="385.627" r="4.62725" fill="#0E88DE"/>
<circle cx="556.812" cy="232.905" r="4.62725" fill="#0E88DE"/>
<ellipse cx="328.535" cy="23.5219" rx="4.62725" ry="4.24164" fill="#0E88DE"/>
<ellipse cx="328.535" cy="213.522" rx="4.62725" ry="4.24164" fill="#0E88DE"/>
<ellipse cx="328.535" cy="118.522" rx="4.62725" ry="4.24164" fill="#0E88DE"/>
<ellipse cx="328.535" cy="308.522" rx="4.62725" ry="4.24164" fill="#0E88DE"/>
<circle cx="23.5219" cy="23.5219" r="4.24164" fill="#0E88DE"/>
<circle cx="23.5219" cy="213.522" r="4.24164" fill="#0E88DE"/>
<circle cx="23.5219" cy="118.522" r="4.24164" fill="#0E88DE"/>
<circle cx="23.5219" cy="308.522" r="4.24164" fill="#0E88DE"/>
<ellipse cx="480.463" cy="23.5219" rx="4.62725" ry="4.24164" fill="#0E88DE"/>
<ellipse cx="480.463" cy="213.522" rx="4.62725" ry="4.24164" fill="#0E88DE"/>
<ellipse cx="480.463" cy="118.522" rx="4.62725" ry="4.24164" fill="#0E88DE"/>
<ellipse cx="480.463" cy="308.522" rx="4.62725" ry="4.24164" fill="#0E88DE"/>
<ellipse cx="175.835" cy="23.5219" rx="4.62725" ry="4.24164" fill="#0E88DE"/>
<ellipse cx="175.835" cy="213.522" rx="4.62725" ry="4.24164" fill="#0E88DE"/>
<ellipse cx="175.835" cy="118.522" rx="4.62725" ry="4.24164" fill="#0E88DE"/>
<ellipse cx="175.835" cy="308.522" rx="4.62725" ry="4.24164" fill="#0E88DE"/>
<ellipse cx="404.884" cy="23.5219" rx="4.62725" ry="4.24164" fill="#0E88DE"/>
<ellipse cx="404.884" cy="213.522" rx="4.62725" ry="4.24164" fill="#0E88DE"/>
<ellipse cx="404.884" cy="118.522" rx="4.62725" ry="4.24164" fill="#0E88DE"/>
<ellipse cx="404.884" cy="308.522" rx="4.62725" ry="4.24164" fill="#0E88DE"/>
<ellipse cx="99.4859" cy="23.5219" rx="4.62725" ry="4.24164" fill="#0E88DE"/>
<ellipse cx="99.4859" cy="213.522" rx="4.62725" ry="4.24164" fill="#0E88DE"/>
<ellipse cx="99.4859" cy="118.522" rx="4.62725" ry="4.24164" fill="#0E88DE"/>
<ellipse cx="99.4859" cy="308.522" rx="4.62725" ry="4.24164" fill="#0E88DE"/>
<circle cx="556.812" cy="328.534" r="4.62725" fill="#0E88DE"/>
<ellipse cx="556.812" cy="23.5219" rx="4.62725" ry="4.24164" fill="#0E88DE"/>
<ellipse cx="252.185" cy="23.5219" rx="4.62725" ry="4.24164" fill="#0E88DE"/>
<ellipse cx="252.185" cy="213.522" rx="4.62725" ry="4.24164" fill="#0E88DE"/>
<ellipse cx="252.185" cy="118.522" rx="4.62725" ry="4.24164" fill="#0E88DE"/>
<ellipse cx="252.185" cy="308.522" rx="4.62725" ry="4.24164" fill="#0E88DE"/>
<circle cx="556.812" cy="175.836" r="4.62725" fill="#0E88DE"/>
<circle cx="556.812" cy="99.4856" r="4.62725" fill="#0E88DE"/>
<circle cx="556.812" cy="252.185" r="4.62725" fill="#0E88DE"/>
<circle cx="328.535" cy="43.1878" r="4.62725" fill="#0E88DE"/>
<circle cx="328.535" cy="233.188" r="4.62725" fill="#0E88DE"/>
<circle cx="328.535" cy="138.188" r="4.62725" fill="#0E88DE"/>
<circle cx="328.535" cy="328.188" r="4.62725" fill="#0E88DE"/>
<ellipse cx="23.5219" cy="43.1878" rx="4.24164" ry="4.62725" fill="#0E88DE"/>
<ellipse cx="23.5219" cy="233.188" rx="4.24164" ry="4.62725" fill="#0E88DE"/>
<ellipse cx="23.5219" cy="138.188" rx="4.24164" ry="4.62725" fill="#0E88DE"/>
<ellipse cx="23.5219" cy="328.188" rx="4.24164" ry="4.62725" fill="#0E88DE"/>
<circle cx="480.463" cy="43.1878" r="4.62725" fill="#0E88DE"/>
<circle cx="480.463" cy="233.188" r="4.62725" fill="#0E88DE"/>
<circle cx="480.463" cy="138.188" r="4.62725" fill="#0E88DE"/>
<circle cx="480.463" cy="328.188" r="4.62725" fill="#0E88DE"/>
<circle cx="175.835" cy="43.1878" r="4.62725" fill="#0E88DE"/>
<circle cx="175.835" cy="233.188" r="4.62725" fill="#0E88DE"/>
<circle cx="175.835" cy="138.188" r="4.62725" fill="#0E88DE"/>
<circle cx="175.835" cy="328.188" r="4.62725" fill="#0E88DE"/>
<circle cx="404.884" cy="43.1878" r="4.62725" fill="#0E88DE"/>
<circle cx="404.884" cy="233.188" r="4.62725" fill="#0E88DE"/>
<circle cx="404.884" cy="138.188" r="4.62725" fill="#0E88DE"/>
<circle cx="404.884" cy="328.188" r="4.62725" fill="#0E88DE"/>
<circle cx="99.4859" cy="43.1878" r="4.62725" fill="#0E88DE"/>
<circle cx="99.4859" cy="233.188" r="4.62725" fill="#0E88DE"/>
<circle cx="99.4859" cy="138.188" r="4.62725" fill="#0E88DE"/>
<circle cx="99.4859" cy="328.188" r="4.62725" fill="#0E88DE"/>
<circle cx="556.812" cy="347.815" r="4.62725" fill="#0E88DE"/>
<circle cx="556.812" cy="43.1878" r="4.62725" fill="#0E88DE"/>
<circle cx="252.185" cy="43.1878" r="4.62725" fill="#0E88DE"/>
<circle cx="252.185" cy="233.188" r="4.62725" fill="#0E88DE"/>
<circle cx="252.185" cy="138.188" r="4.62725" fill="#0E88DE"/>
<circle cx="252.185" cy="328.188" r="4.62725" fill="#0E88DE"/>
<circle cx="556.812" cy="195.116" r="4.62725" fill="#0E88DE"/>
<circle cx="556.812" cy="119.537" r="4.62725" fill="#0E88DE"/>
<circle cx="556.812" cy="271.465" r="4.62725" fill="#0E88DE"/>
<circle cx="328.535" cy="61.6966" r="4.62725" fill="#0E88DE"/>
<circle cx="328.535" cy="251.697" r="4.62725" fill="#0E88DE"/>
<circle cx="328.535" cy="156.697" r="4.62725" fill="#0E88DE"/>
<circle cx="328.535" cy="346.697" r="4.62725" fill="#0E88DE"/>
<ellipse cx="23.5219" cy="61.6966" rx="4.24164" ry="4.62725" fill="#0E88DE"/>
<ellipse cx="23.5219" cy="251.697" rx="4.24164" ry="4.62725" fill="#0E88DE"/>
<ellipse cx="23.5219" cy="156.697" rx="4.24164" ry="4.62725" fill="#0E88DE"/>
<ellipse cx="23.5219" cy="346.697" rx="4.24164" ry="4.62725" fill="#0E88DE"/>
<circle cx="480.463" cy="61.6966" r="4.62725" fill="#0E88DE"/>
<circle cx="480.463" cy="251.697" r="4.62725" fill="#0E88DE"/>
<circle cx="480.463" cy="156.697" r="4.62725" fill="#0E88DE"/>
<circle cx="480.463" cy="346.697" r="4.62725" fill="#0E88DE"/>
<circle cx="175.835" cy="61.6966" r="4.62725" fill="#0E88DE"/>
<circle cx="175.835" cy="251.697" r="4.62725" fill="#0E88DE"/>
<circle cx="175.835" cy="156.697" r="4.62725" fill="#0E88DE"/>
<circle cx="175.835" cy="346.697" r="4.62725" fill="#0E88DE"/>
<circle cx="404.884" cy="61.6966" r="4.62725" fill="#0E88DE"/>
<circle cx="404.884" cy="251.697" r="4.62725" fill="#0E88DE"/>
<circle cx="404.884" cy="156.697" r="4.62725" fill="#0E88DE"/>
<circle cx="404.884" cy="346.697" r="4.62725" fill="#0E88DE"/>
<circle cx="99.4859" cy="61.6966" r="4.62725" fill="#0E88DE"/>
<circle cx="99.4859" cy="251.697" r="4.62725" fill="#0E88DE"/>
<circle cx="99.4859" cy="156.697" r="4.62725" fill="#0E88DE"/>
<circle cx="99.4859" cy="346.697" r="4.62725" fill="#0E88DE"/>
<circle cx="556.812" cy="367.095" r="4.62725" fill="#0E88DE"/>
<circle cx="556.812" cy="61.6966" r="4.62725" fill="#0E88DE"/>
<circle cx="252.185" cy="61.6966" r="4.62725" fill="#0E88DE"/>
<circle cx="252.185" cy="251.697" r="4.62725" fill="#0E88DE"/>
<circle cx="252.185" cy="156.697" r="4.62725" fill="#0E88DE"/>
<circle cx="252.185" cy="346.697" r="4.62725" fill="#0E88DE"/>
<circle cx="556.812" cy="214.396" r="4.62725" fill="#0E88DE"/>
<circle cx="556.812" cy="138.046" r="4.62725" fill="#0E88DE"/>
<circle cx="556.812" cy="290.745" r="4.62725" fill="#0E88DE"/>
<circle cx="347.815" cy="4.62725" r="4.62725" fill="#0E88DE"/>
<circle cx="347.815" cy="194.627" r="4.62725" fill="#0E88DE"/>
<circle cx="347.815" cy="99.6273" r="4.62725" fill="#0E88DE"/>
<circle cx="347.815" cy="289.627" r="4.62725" fill="#0E88DE"/>
<circle cx="43.1876" cy="4.62725" r="4.62725" fill="#0E88DE"/>
<circle cx="43.1876" cy="194.627" r="4.62725" fill="#0E88DE"/>
<circle cx="43.1876" cy="99.6273" r="4.62725" fill="#0E88DE"/>
<circle cx="43.1876" cy="289.627" r="4.62725" fill="#0E88DE"/>
<circle cx="500.514" cy="4.62725" r="4.62725" fill="#0E88DE"/>
<circle cx="500.514" cy="194.627" r="4.62725" fill="#0E88DE"/>
<circle cx="500.514" cy="99.6273" r="4.62725" fill="#0E88DE"/>
<circle cx="500.514" cy="289.627" r="4.62725" fill="#0E88DE"/>
<circle cx="195.116" cy="4.62725" r="4.62725" fill="#0E88DE"/>
<circle cx="195.116" cy="194.627" r="4.62725" fill="#0E88DE"/>
<circle cx="195.116" cy="99.6273" r="4.62725" fill="#0E88DE"/>
<circle cx="195.116" cy="289.627" r="4.62725" fill="#0E88DE"/>
<circle cx="347.815" cy="80.9769" r="4.62725" fill="#0E88DE"/>
<circle cx="347.815" cy="270.977" r="4.62725" fill="#0E88DE"/>
<circle cx="347.815" cy="175.977" r="4.62725" fill="#0E88DE"/>
<circle cx="347.815" cy="365.977" r="4.62725" fill="#0E88DE"/>
<circle cx="347.815" cy="385.627" r="4.62725" fill="#0E88DE"/>
<circle cx="43.1876" cy="80.9769" r="4.62725" fill="#0E88DE"/>
<circle cx="43.1876" cy="270.977" r="4.62725" fill="#0E88DE"/>
<circle cx="43.1876" cy="175.977" r="4.62725" fill="#0E88DE"/>
<circle cx="43.1876" cy="365.977" r="4.62725" fill="#0E88DE"/>
<circle cx="43.1876" cy="385.627" r="4.62725" fill="#0E88DE"/>
<circle cx="500.514" cy="80.9769" r="4.62725" fill="#0E88DE"/>
<circle cx="500.514" cy="270.977" r="4.62725" fill="#0E88DE"/>
<circle cx="500.514" cy="175.977" r="4.62725" fill="#0E88DE"/>
<circle cx="500.514" cy="365.977" r="4.62725" fill="#0E88DE"/>
<circle cx="500.514" cy="385.627" r="4.62725" fill="#0E88DE"/>
<circle cx="195.116" cy="80.9769" r="4.62725" fill="#0E88DE"/>
<circle cx="195.116" cy="270.977" r="4.62725" fill="#0E88DE"/>
<circle cx="195.116" cy="175.977" r="4.62725" fill="#0E88DE"/>
<circle cx="195.116" cy="365.977" r="4.62725" fill="#0E88DE"/>
<circle cx="195.116" cy="385.627" r="4.62725" fill="#0E88DE"/>
<circle cx="424.164" cy="4.62725" r="4.62725" fill="#0E88DE"/>
<circle cx="424.164" cy="194.627" r="4.62725" fill="#0E88DE"/>
<circle cx="424.164" cy="99.6273" r="4.62725" fill="#0E88DE"/>
<circle cx="424.164" cy="289.627" r="4.62725" fill="#0E88DE"/>
<circle cx="119.537" cy="4.62725" r="4.62725" fill="#0E88DE"/>
<circle cx="119.537" cy="194.627" r="4.62725" fill="#0E88DE"/>
<circle cx="119.537" cy="99.6273" r="4.62725" fill="#0E88DE"/>
<circle cx="119.537" cy="289.627" r="4.62725" fill="#0E88DE"/>
<ellipse cx="576.478" cy="309.254" rx="4.24164" ry="4.62725" fill="#0E88DE"/>
<ellipse cx="576.478" cy="4.62725" rx="4.24164" ry="4.62725" fill="#0E88DE"/>
<circle cx="271.465" cy="4.62725" r="4.62725" fill="#0E88DE"/>
<circle cx="271.465" cy="194.627" r="4.62725" fill="#0E88DE"/>
<circle cx="271.465" cy="99.6273" r="4.62725" fill="#0E88DE"/>
<circle cx="271.465" cy="289.627" r="4.62725" fill="#0E88DE"/>
<ellipse cx="576.478" cy="157.326" rx="4.24164" ry="4.62725" fill="#0E88DE"/>
<circle cx="424.164" cy="80.9769" r="4.62725" fill="#0E88DE"/>
<circle cx="424.164" cy="270.977" r="4.62725" fill="#0E88DE"/>
<circle cx="424.164" cy="175.977" r="4.62725" fill="#0E88DE"/>
<circle cx="424.164" cy="365.977" r="4.62725" fill="#0E88DE"/>
<circle cx="424.164" cy="385.627" r="4.62725" fill="#0E88DE"/>
<circle cx="119.537" cy="80.9769" r="4.62725" fill="#0E88DE"/>
<circle cx="119.537" cy="270.977" r="4.62725" fill="#0E88DE"/>
<circle cx="119.537" cy="175.977" r="4.62725" fill="#0E88DE"/>
<circle cx="119.537" cy="365.977" r="4.62725" fill="#0E88DE"/>
<circle cx="119.537" cy="385.627" r="4.62725" fill="#0E88DE"/>
<ellipse cx="576.478" cy="385.604" rx="4.24164" ry="4.62725" fill="#0E88DE"/>
<ellipse cx="576.478" cy="80.9769" rx="4.24164" ry="4.62725" fill="#0E88DE"/>
<circle cx="271.465" cy="80.9769" r="4.62725" fill="#0E88DE"/>
<circle cx="271.465" cy="270.977" r="4.62725" fill="#0E88DE"/>
<circle cx="271.465" cy="175.977" r="4.62725" fill="#0E88DE"/>
<circle cx="271.465" cy="365.977" r="4.62725" fill="#0E88DE"/>
<circle cx="271.465" cy="385.627" r="4.62725" fill="#0E88DE"/>
<ellipse cx="576.478" cy="232.905" rx="4.24164" ry="4.62725" fill="#0E88DE"/>
<ellipse cx="347.815" cy="23.5219" rx="4.62725" ry="4.24164" fill="#0E88DE"/>
<ellipse cx="347.815" cy="213.522" rx="4.62725" ry="4.24164" fill="#0E88DE"/>
<ellipse cx="347.815" cy="118.522" rx="4.62725" ry="4.24164" fill="#0E88DE"/>
<ellipse cx="347.815" cy="308.522" rx="4.62725" ry="4.24164" fill="#0E88DE"/>
<ellipse cx="43.1876" cy="23.5219" rx="4.62725" ry="4.24164" fill="#0E88DE"/>
<ellipse cx="43.1876" cy="213.522" rx="4.62725" ry="4.24164" fill="#0E88DE"/>
<ellipse cx="43.1876" cy="118.522" rx="4.62725" ry="4.24164" fill="#0E88DE"/>
<ellipse cx="43.1876" cy="308.522" rx="4.62725" ry="4.24164" fill="#0E88DE"/>
<ellipse cx="500.514" cy="23.5219" rx="4.62725" ry="4.24164" fill="#0E88DE"/>
<ellipse cx="500.514" cy="213.522" rx="4.62725" ry="4.24164" fill="#0E88DE"/>
<ellipse cx="500.514" cy="118.522" rx="4.62725" ry="4.24164" fill="#0E88DE"/>
<ellipse cx="500.514" cy="308.522" rx="4.62725" ry="4.24164" fill="#0E88DE"/>
<ellipse cx="195.116" cy="23.5219" rx="4.62725" ry="4.24164" fill="#0E88DE"/>
<ellipse cx="195.116" cy="213.522" rx="4.62725" ry="4.24164" fill="#0E88DE"/>
<ellipse cx="195.116" cy="118.522" rx="4.62725" ry="4.24164" fill="#0E88DE"/>
<ellipse cx="195.116" cy="308.522" rx="4.62725" ry="4.24164" fill="#0E88DE"/>
<ellipse cx="424.164" cy="23.5219" rx="4.62725" ry="4.24164" fill="#0E88DE"/>
<ellipse cx="424.164" cy="213.522" rx="4.62725" ry="4.24164" fill="#0E88DE"/>
<ellipse cx="424.164" cy="118.522" rx="4.62725" ry="4.24164" fill="#0E88DE"/>
<ellipse cx="424.164" cy="308.522" rx="4.62725" ry="4.24164" fill="#0E88DE"/>
<ellipse cx="119.537" cy="23.5219" rx="4.62725" ry="4.24164" fill="#0E88DE"/>
<ellipse cx="119.537" cy="213.522" rx="4.62725" ry="4.24164" fill="#0E88DE"/>
<ellipse cx="119.537" cy="118.522" rx="4.62725" ry="4.24164" fill="#0E88DE"/>
<ellipse cx="119.537" cy="308.522" rx="4.62725" ry="4.24164" fill="#0E88DE"/>
<ellipse cx="576.478" cy="328.534" rx="4.24164" ry="4.62725" fill="#0E88DE"/>
<circle cx="576.478" cy="23.5219" r="4.24164" fill="#0E88DE"/>
<ellipse cx="271.465" cy="23.5219" rx="4.62725" ry="4.24164" fill="#0E88DE"/>
<ellipse cx="271.465" cy="213.522" rx="4.62725" ry="4.24164" fill="#0E88DE"/>
<ellipse cx="271.465" cy="118.522" rx="4.62725" ry="4.24164" fill="#0E88DE"/>
<ellipse cx="271.465" cy="308.522" rx="4.62725" ry="4.24164" fill="#0E88DE"/>
<ellipse cx="576.478" cy="175.836" rx="4.24164" ry="4.62725" fill="#0E88DE"/>
<ellipse cx="576.478" cy="99.4856" rx="4.24164" ry="4.62725" fill="#0E88DE"/>
<ellipse cx="576.478" cy="252.185" rx="4.24164" ry="4.62725" fill="#0E88DE"/>
<circle cx="347.815" cy="43.1878" r="4.62725" fill="#0E88DE"/>
<circle cx="347.815" cy="233.188" r="4.62725" fill="#0E88DE"/>
<circle cx="347.815" cy="138.188" r="4.62725" fill="#0E88DE"/>
<circle cx="347.815" cy="328.188" r="4.62725" fill="#0E88DE"/>
<circle cx="43.1876" cy="43.1878" r="4.62725" fill="#0E88DE"/>
<circle cx="43.1876" cy="233.188" r="4.62725" fill="#0E88DE"/>
<circle cx="43.1876" cy="138.188" r="4.62725" fill="#0E88DE"/>
<circle cx="43.1876" cy="328.188" r="4.62725" fill="#0E88DE"/>
<circle cx="500.514" cy="43.1878" r="4.62725" fill="#0E88DE"/>
<circle cx="500.514" cy="233.188" r="4.62725" fill="#0E88DE"/>
<circle cx="500.514" cy="138.188" r="4.62725" fill="#0E88DE"/>
<circle cx="500.514" cy="328.188" r="4.62725" fill="#0E88DE"/>
<circle cx="195.116" cy="43.1878" r="4.62725" fill="#0E88DE"/>
<circle cx="195.116" cy="233.188" r="4.62725" fill="#0E88DE"/>
<circle cx="195.116" cy="138.188" r="4.62725" fill="#0E88DE"/>
<circle cx="195.116" cy="328.188" r="4.62725" fill="#0E88DE"/>
<circle cx="424.164" cy="43.1878" r="4.62725" fill="#0E88DE"/>
<circle cx="424.164" cy="233.188" r="4.62725" fill="#0E88DE"/>
<circle cx="424.164" cy="138.188" r="4.62725" fill="#0E88DE"/>
<circle cx="424.164" cy="328.188" r="4.62725" fill="#0E88DE"/>
<circle cx="119.537" cy="43.1878" r="4.62725" fill="#0E88DE"/>
<circle cx="119.537" cy="233.188" r="4.62725" fill="#0E88DE"/>
<circle cx="119.537" cy="138.188" r="4.62725" fill="#0E88DE"/>
<circle cx="119.537" cy="328.188" r="4.62725" fill="#0E88DE"/>
<ellipse cx="576.478" cy="347.815" rx="4.24164" ry="4.62725" fill="#0E88DE"/>
<ellipse cx="576.478" cy="43.1878" rx="4.24164" ry="4.62725" fill="#0E88DE"/>
<circle cx="271.465" cy="43.1878" r="4.62725" fill="#0E88DE"/>
<circle cx="271.465" cy="233.188" r="4.62725" fill="#0E88DE"/>
<circle cx="271.465" cy="138.188" r="4.62725" fill="#0E88DE"/>
<circle cx="271.465" cy="328.188" r="4.62725" fill="#0E88DE"/>
<ellipse cx="576.478" cy="195.116" rx="4.24164" ry="4.62725" fill="#0E88DE"/>
<ellipse cx="576.478" cy="119.537" rx="4.24164" ry="4.62725" fill="#0E88DE"/>
<ellipse cx="576.478" cy="271.465" rx="4.24164" ry="4.62725" fill="#0E88DE"/>
<circle cx="347.815" cy="61.6966" r="4.62725" fill="#0E88DE"/>
<circle cx="347.815" cy="251.697" r="4.62725" fill="#0E88DE"/>
<circle cx="347.815" cy="156.697" r="4.62725" fill="#0E88DE"/>
<circle cx="347.815" cy="346.697" r="4.62725" fill="#0E88DE"/>
<circle cx="43.1876" cy="61.6966" r="4.62725" fill="#0E88DE"/>
<circle cx="43.1876" cy="251.697" r="4.62725" fill="#0E88DE"/>
<circle cx="43.1876" cy="156.697" r="4.62725" fill="#0E88DE"/>
<circle cx="43.1876" cy="346.697" r="4.62725" fill="#0E88DE"/>
<circle cx="500.514" cy="61.6966" r="4.62725" fill="#0E88DE"/>
<circle cx="500.514" cy="251.697" r="4.62725" fill="#0E88DE"/>
<circle cx="500.514" cy="156.697" r="4.62725" fill="#0E88DE"/>
<circle cx="500.514" cy="346.697" r="4.62725" fill="#0E88DE"/>
<circle cx="195.116" cy="61.6966" r="4.62725" fill="#0E88DE"/>
<circle cx="195.116" cy="251.697" r="4.62725" fill="#0E88DE"/>
<circle cx="195.116" cy="156.697" r="4.62725" fill="#0E88DE"/>
<circle cx="195.116" cy="346.697" r="4.62725" fill="#0E88DE"/>
<circle cx="424.164" cy="61.6966" r="4.62725" fill="#0E88DE"/>
<circle cx="424.164" cy="251.697" r="4.62725" fill="#0E88DE"/>
<circle cx="424.164" cy="156.697" r="4.62725" fill="#0E88DE"/>
<circle cx="424.164" cy="346.697" r="4.62725" fill="#0E88DE"/>
<circle cx="119.537" cy="61.6966" r="4.62725" fill="#0E88DE"/>
<circle cx="119.537" cy="251.697" r="4.62725" fill="#0E88DE"/>
<circle cx="119.537" cy="156.697" r="4.62725" fill="#0E88DE"/>
<circle cx="119.537" cy="346.697" r="4.62725" fill="#0E88DE"/>
<ellipse cx="576.478" cy="367.095" rx="4.24164" ry="4.62725" fill="#0E88DE"/>
<ellipse cx="576.478" cy="61.6966" rx="4.24164" ry="4.62725" fill="#0E88DE"/>
<circle cx="271.465" cy="61.6966" r="4.62725" fill="#0E88DE"/>
<circle cx="271.465" cy="251.697" r="4.62725" fill="#0E88DE"/>
<circle cx="271.465" cy="156.697" r="4.62725" fill="#0E88DE"/>
<circle cx="271.465" cy="346.697" r="4.62725" fill="#0E88DE"/>
<ellipse cx="576.478" cy="214.396" rx="4.24164" ry="4.62725" fill="#0E88DE"/>
<ellipse cx="576.478" cy="138.046" rx="4.24164" ry="4.62725" fill="#0E88DE"/>
<ellipse cx="576.478" cy="290.745" rx="4.24164" ry="4.62725" fill="#0E88DE"/>
<circle cx="367.095" cy="4.62725" r="4.62725" fill="#0E88DE"/>
<circle cx="367.095" cy="194.627" r="4.62725" fill="#0E88DE"/>
<circle cx="367.095" cy="99.6273" r="4.62725" fill="#0E88DE"/>
<circle cx="367.095" cy="289.627" r="4.62725" fill="#0E88DE"/>
<circle cx="61.6966" cy="4.62725" r="4.62725" fill="#0E88DE"/>
<circle cx="61.6966" cy="194.627" r="4.62725" fill="#0E88DE"/>
<circle cx="61.6966" cy="99.6273" r="4.62725" fill="#0E88DE"/>
<circle cx="61.6966" cy="289.627" r="4.62725" fill="#0E88DE"/>
<circle cx="519.023" cy="309.254" r="4.62725" fill="#0E88DE"/>
<circle cx="519.023" cy="4.62725" r="4.62725" fill="#0E88DE"/>
<circle cx="214.396" cy="4.62725" r="4.62725" fill="#0E88DE"/>
<circle cx="214.396" cy="194.627" r="4.62725" fill="#0E88DE"/>
<circle cx="214.396" cy="99.6273" r="4.62725" fill="#0E88DE"/>
<circle cx="214.396" cy="289.627" r="4.62725" fill="#0E88DE"/>
<circle cx="519.023" cy="157.326" r="4.62725" fill="#0E88DE"/>
<circle cx="367.095" cy="80.9769" r="4.62725" fill="#0E88DE"/>
<circle cx="367.095" cy="270.977" r="4.62725" fill="#0E88DE"/>
<circle cx="367.095" cy="175.977" r="4.62725" fill="#0E88DE"/>
<circle cx="367.095" cy="365.977" r="4.62725" fill="#0E88DE"/>
<circle cx="367.095" cy="385.627" r="4.62725" fill="#0E88DE"/>
<circle cx="61.6966" cy="80.9769" r="4.62725" fill="#0E88DE"/>
<circle cx="61.6966" cy="270.977" r="4.62725" fill="#0E88DE"/>
<circle cx="61.6966" cy="175.977" r="4.62725" fill="#0E88DE"/>
<circle cx="61.6966" cy="365.977" r="4.62725" fill="#0E88DE"/>
<circle cx="61.6966" cy="385.627" r="4.62725" fill="#0E88DE"/>
<circle cx="519.023" cy="385.604" r="4.62725" fill="#0E88DE"/>
<circle cx="519.023" cy="80.9769" r="4.62725" fill="#0E88DE"/>
<circle cx="214.396" cy="80.9769" r="4.62725" fill="#0E88DE"/>
<circle cx="214.396" cy="270.977" r="4.62725" fill="#0E88DE"/>
<circle cx="214.396" cy="175.977" r="4.62725" fill="#0E88DE"/>
<circle cx="214.396" cy="365.977" r="4.62725" fill="#0E88DE"/>
<circle cx="214.396" cy="385.627" r="4.62725" fill="#0E88DE"/>
<circle cx="519.023" cy="232.905" r="4.62725" fill="#0E88DE"/>
<circle cx="442.673" cy="4.62725" r="4.62725" fill="#0E88DE"/>
<circle cx="442.673" cy="194.627" r="4.62725" fill="#0E88DE"/>
<circle cx="442.673" cy="99.6273" r="4.62725" fill="#0E88DE"/>
<circle cx="442.673" cy="289.627" r="4.62725" fill="#0E88DE"/>
<circle cx="138.046" cy="4.62725" r="4.62725" fill="#0E88DE"/>
<circle cx="138.046" cy="194.627" r="4.62725" fill="#0E88DE"/>
<circle cx="138.046" cy="99.6273" r="4.62725" fill="#0E88DE"/>
<circle cx="138.046" cy="289.627" r="4.62725" fill="#0E88DE"/>
<circle cx="595.373" cy="309.254" r="4.62725" fill="#0E88DE"/>
<circle cx="595.373" cy="4.62725" r="4.62725" fill="#0E88DE"/>
<circle cx="290.745" cy="4.62725" r="4.62725" fill="#0E88DE"/>
<circle cx="290.745" cy="194.627" r="4.62725" fill="#0E88DE"/>
<circle cx="290.745" cy="99.6273" r="4.62725" fill="#0E88DE"/>
<circle cx="290.745" cy="289.627" r="4.62725" fill="#0E88DE"/>
<circle cx="595.373" cy="157.326" r="4.62725" fill="#0E88DE"/>
<circle cx="442.673" cy="80.9769" r="4.62725" fill="#0E88DE"/>
<circle cx="442.673" cy="270.977" r="4.62725" fill="#0E88DE"/>
<circle cx="442.673" cy="175.977" r="4.62725" fill="#0E88DE"/>
<circle cx="442.673" cy="365.977" r="4.62725" fill="#0E88DE"/>
<circle cx="442.673" cy="385.627" r="4.62725" fill="#0E88DE"/>
<circle cx="138.046" cy="80.9769" r="4.62725" fill="#0E88DE"/>
<circle cx="138.046" cy="270.977" r="4.62725" fill="#0E88DE"/>
<circle cx="138.046" cy="175.977" r="4.62725" fill="#0E88DE"/>
<circle cx="138.046" cy="365.977" r="4.62725" fill="#0E88DE"/>
<circle cx="138.046" cy="385.627" r="4.62725" fill="#0E88DE"/>
<circle cx="595.373" cy="385.604" r="4.62725" fill="#0E88DE"/>
<circle cx="595.373" cy="80.9769" r="4.62725" fill="#0E88DE"/>
<circle cx="290.745" cy="80.9769" r="4.62725" fill="#0E88DE"/>
<circle cx="290.745" cy="270.977" r="4.62725" fill="#0E88DE"/>
<circle cx="290.745" cy="175.977" r="4.62725" fill="#0E88DE"/>
<circle cx="290.745" cy="365.977" r="4.62725" fill="#0E88DE"/>
<circle cx="290.745" cy="385.627" r="4.62725" fill="#0E88DE"/>
<circle cx="595.373" cy="232.905" r="4.62725" fill="#0E88DE"/>
<ellipse cx="367.095" cy="23.5219" rx="4.62725" ry="4.24164" fill="#0E88DE"/>
<ellipse cx="367.095" cy="213.522" rx="4.62725" ry="4.24164" fill="#0E88DE"/>
<ellipse cx="367.095" cy="118.522" rx="4.62725" ry="4.24164" fill="#0E88DE"/>
<ellipse cx="367.095" cy="308.522" rx="4.62725" ry="4.24164" fill="#0E88DE"/>
<ellipse cx="61.6966" cy="23.5219" rx="4.62725" ry="4.24164" fill="#0E88DE"/>
<ellipse cx="61.6966" cy="213.522" rx="4.62725" ry="4.24164" fill="#0E88DE"/>
<ellipse cx="61.6966" cy="118.522" rx="4.62725" ry="4.24164" fill="#0E88DE"/>
<ellipse cx="61.6966" cy="308.522" rx="4.62725" ry="4.24164" fill="#0E88DE"/>
<circle cx="519.023" cy="328.534" r="4.62725" fill="#0E88DE"/>
<ellipse cx="519.023" cy="23.5219" rx="4.62725" ry="4.24164" fill="#0E88DE"/>
<ellipse cx="214.396" cy="23.5219" rx="4.62725" ry="4.24164" fill="#0E88DE"/>
<ellipse cx="214.396" cy="213.522" rx="4.62725" ry="4.24164" fill="#0E88DE"/>
<ellipse cx="214.396" cy="118.522" rx="4.62725" ry="4.24164" fill="#0E88DE"/>
<ellipse cx="214.396" cy="308.522" rx="4.62725" ry="4.24164" fill="#0E88DE"/>
<circle cx="519.023" cy="175.836" r="4.62725" fill="#0E88DE"/>
<circle cx="519.023" cy="99.4856" r="4.62725" fill="#0E88DE"/>
<circle cx="519.023" cy="252.185" r="4.62725" fill="#0E88DE"/>
<ellipse cx="442.673" cy="23.5219" rx="4.62725" ry="4.24164" fill="#0E88DE"/>
<ellipse cx="442.673" cy="213.522" rx="4.62725" ry="4.24164" fill="#0E88DE"/>
<ellipse cx="442.673" cy="118.522" rx="4.62725" ry="4.24164" fill="#0E88DE"/>
<ellipse cx="442.673" cy="308.522" rx="4.62725" ry="4.24164" fill="#0E88DE"/>
<ellipse cx="138.046" cy="23.5219" rx="4.62725" ry="4.24164" fill="#0E88DE"/>
<ellipse cx="138.046" cy="213.522" rx="4.62725" ry="4.24164" fill="#0E88DE"/>
<ellipse cx="138.046" cy="118.522" rx="4.62725" ry="4.24164" fill="#0E88DE"/>
<ellipse cx="138.046" cy="308.522" rx="4.62725" ry="4.24164" fill="#0E88DE"/>
<circle cx="595.373" cy="328.534" r="4.62725" fill="#0E88DE"/>
<ellipse cx="595.373" cy="23.5219" rx="4.62725" ry="4.24164" fill="#0E88DE"/>
<ellipse cx="290.745" cy="23.5219" rx="4.62725" ry="4.24164" fill="#0E88DE"/>
<ellipse cx="290.745" cy="213.522" rx="4.62725" ry="4.24164" fill="#0E88DE"/>
<ellipse cx="290.745" cy="118.522" rx="4.62725" ry="4.24164" fill="#0E88DE"/>
<ellipse cx="290.745" cy="308.522" rx="4.62725" ry="4.24164" fill="#0E88DE"/>
<circle cx="595.373" cy="175.836" r="4.62725" fill="#0E88DE"/>
<circle cx="595.373" cy="99.4856" r="4.62725" fill="#0E88DE"/>
<circle cx="595.373" cy="252.185" r="4.62725" fill="#0E88DE"/>
<circle cx="367.095" cy="43.1878" r="4.62725" fill="#0E88DE"/>
<circle cx="367.095" cy="233.188" r="4.62725" fill="#0E88DE"/>
<circle cx="367.095" cy="138.188" r="4.62725" fill="#0E88DE"/>
<circle cx="367.095" cy="328.188" r="4.62725" fill="#0E88DE"/>
<circle cx="61.6966" cy="43.1878" r="4.62725" fill="#0E88DE"/>
<circle cx="61.6966" cy="233.188" r="4.62725" fill="#0E88DE"/>
<circle cx="61.6966" cy="138.188" r="4.62725" fill="#0E88DE"/>
<circle cx="61.6966" cy="328.188" r="4.62725" fill="#0E88DE"/>
<circle cx="519.023" cy="347.815" r="4.62725" fill="#0E88DE"/>
<circle cx="519.023" cy="43.1878" r="4.62725" fill="#0E88DE"/>
<circle cx="214.396" cy="43.1878" r="4.62725" fill="#0E88DE"/>
<circle cx="214.396" cy="233.188" r="4.62725" fill="#0E88DE"/>
<circle cx="214.396" cy="138.188" r="4.62725" fill="#0E88DE"/>
<circle cx="214.396" cy="328.188" r="4.62725" fill="#0E88DE"/>
<circle cx="519.023" cy="195.116" r="4.62725" fill="#0E88DE"/>
<circle cx="519.023" cy="119.537" r="4.62725" fill="#0E88DE"/>
<circle cx="519.023" cy="271.465" r="4.62725" fill="#0E88DE"/>
<circle cx="442.673" cy="43.1878" r="4.62725" fill="#0E88DE"/>
<circle cx="442.673" cy="233.188" r="4.62725" fill="#0E88DE"/>
<circle cx="442.673" cy="138.188" r="4.62725" fill="#0E88DE"/>
<circle cx="442.673" cy="328.188" r="4.62725" fill="#0E88DE"/>
<circle cx="138.046" cy="43.1878" r="4.62725" fill="#0E88DE"/>
<circle cx="138.046" cy="233.188" r="4.62725" fill="#0E88DE"/>
<circle cx="138.046" cy="138.188" r="4.62725" fill="#0E88DE"/>
<circle cx="138.046" cy="328.188" r="4.62725" fill="#0E88DE"/>
<circle cx="595.373" cy="347.815" r="4.62725" fill="#0E88DE"/>
<circle cx="595.373" cy="43.1878" r="4.62725" fill="#0E88DE"/>
<circle cx="290.745" cy="43.1878" r="4.62725" fill="#0E88DE"/>
<circle cx="290.745" cy="233.188" r="4.62725" fill="#0E88DE"/>
<circle cx="290.745" cy="138.188" r="4.62725" fill="#0E88DE"/>
<circle cx="290.745" cy="328.188" r="4.62725" fill="#0E88DE"/>
<circle cx="595.373" cy="195.116" r="4.62725" fill="#0E88DE"/>
<circle cx="595.373" cy="119.537" r="4.62725" fill="#0E88DE"/>
<circle cx="595.373" cy="271.465" r="4.62725" fill="#0E88DE"/>
<circle cx="367.095" cy="61.6966" r="4.62725" fill="#0E88DE"/>
<circle cx="367.095" cy="251.697" r="4.62725" fill="#0E88DE"/>
<circle cx="367.095" cy="156.697" r="4.62725" fill="#0E88DE"/>
<circle cx="367.095" cy="346.697" r="4.62725" fill="#0E88DE"/>
<circle cx="61.6966" cy="61.6966" r="4.62725" fill="#0E88DE"/>
<circle cx="61.6966" cy="251.697" r="4.62725" fill="#0E88DE"/>
<circle cx="61.6966" cy="156.697" r="4.62725" fill="#0E88DE"/>
<circle cx="61.6966" cy="346.697" r="4.62725" fill="#0E88DE"/>
<circle cx="519.023" cy="367.095" r="4.62725" fill="#0E88DE"/>
<circle cx="519.023" cy="61.6966" r="4.62725" fill="#0E88DE"/>
<circle cx="214.396" cy="61.6966" r="4.62725" fill="#0E88DE"/>
<circle cx="214.396" cy="251.697" r="4.62725" fill="#0E88DE"/>
<circle cx="214.396" cy="156.697" r="4.62725" fill="#0E88DE"/>
<circle cx="214.396" cy="346.697" r="4.62725" fill="#0E88DE"/>
<circle cx="519.023" cy="214.396" r="4.62725" fill="#0E88DE"/>
<circle cx="519.023" cy="138.046" r="4.62725" fill="#0E88DE"/>
<circle cx="519.023" cy="290.745" r="4.62725" fill="#0E88DE"/>
<circle cx="442.673" cy="61.6966" r="4.62725" fill="#0E88DE"/>
<circle cx="442.673" cy="251.697" r="4.62725" fill="#0E88DE"/>
<circle cx="442.673" cy="156.697" r="4.62725" fill="#0E88DE"/>
<circle cx="442.673" cy="346.697" r="4.62725" fill="#0E88DE"/>
<circle cx="138.046" cy="61.6966" r="4.62725" fill="#0E88DE"/>
<circle cx="138.046" cy="251.697" r="4.62725" fill="#0E88DE"/>
<circle cx="138.046" cy="156.697" r="4.62725" fill="#0E88DE"/>
<circle cx="138.046" cy="346.697" r="4.62725" fill="#0E88DE"/>
<circle cx="595.373" cy="367.095" r="4.62725" fill="#0E88DE"/>
<circle cx="595.373" cy="61.6966" r="4.62725" fill="#0E88DE"/>
<circle cx="290.745" cy="61.6966" r="4.62725" fill="#0E88DE"/>
<circle cx="290.745" cy="251.697" r="4.62725" fill="#0E88DE"/>
<circle cx="290.745" cy="156.697" r="4.62725" fill="#0E88DE"/>
<circle cx="290.745" cy="346.697" r="4.62725" fill="#0E88DE"/>
<circle cx="595.373" cy="214.396" r="4.62725" fill="#0E88DE"/>
<circle cx="595.373" cy="138.046" r="4.62725" fill="#0E88DE"/>
<circle cx="595.373" cy="290.745" r="4.62725" fill="#0E88DE"/>
</svg>
