<svg width="600" height="391" viewBox="0 0 600 391" fill="none" xmlns="http://www.w3.org/2000/svg">
<circle cx="309.254" cy="4.62725" r="4.62725" fill="#0E88DE"/>
<circle cx="4.62725" cy="4.62725" r="4.62725" fill="#0E88DE"/>
<circle cx="461.953" cy="4.62725" r="4.62725" fill="#0E88DE"/>
<circle cx="157.326" cy="4.62725" r="4.62725" fill="#0E88DE"/>
<circle cx="309.255" cy="80.9769" r="4.62725" fill="#0E88DE"/>
<circle cx="4.62725" cy="80.9769" r="4.62725" fill="#0E88DE"/>
<circle cx="461.953" cy="80.9769" r="4.62725" fill="#0E88DE"/>
<circle cx="157.326" cy="80.9769" r="4.62725" fill="#0E88DE"/>
<circle cx="385.604" cy="4.62725" r="4.62725" fill="#0E88DE"/>
<circle cx="80.9769" cy="4.62725" r="4.62725" fill="#0E88DE"/>
<circle cx="538.303" cy="309.254" r="4.62725" fill="#0E88DE"/>
<circle cx="538.304" cy="4.62725" r="4.62725" fill="#0E88DE"/>
<circle cx="232.905" cy="4.62725" r="4.62725" fill="#0E88DE"/>
<circle cx="538.303" cy="157.326" r="4.62725" fill="#0E88DE"/>
<circle cx="385.604" cy="80.9769" r="4.62725" fill="#0E88DE"/>
<circle cx="80.9769" cy="80.9769" r="4.62725" fill="#0E88DE"/>
<circle cx="538.303" cy="385.604" r="4.62725" fill="#0E88DE"/>
<circle cx="538.303" cy="80.9769" r="4.62725" fill="#0E88DE"/>
<circle cx="232.905" cy="80.9769" r="4.62725" fill="#0E88DE"/>
<circle cx="538.303" cy="232.905" r="4.62725" fill="#0E88DE"/>
<ellipse cx="309.255" cy="23.5219" rx="4.62725" ry="4.24164" fill="#0E88DE"/>
<ellipse cx="4.62725" cy="23.5219" rx="4.62725" ry="4.24164" fill="#0E88DE"/>
<ellipse cx="461.953" cy="23.5219" rx="4.62725" ry="4.24164" fill="#0E88DE"/>
<ellipse cx="157.326" cy="23.5219" rx="4.62725" ry="4.24164" fill="#0E88DE"/>
<ellipse cx="385.604" cy="23.5219" rx="4.62725" ry="4.24164" fill="#0E88DE"/>
<ellipse cx="80.9769" cy="23.5219" rx="4.62725" ry="4.24164" fill="#0E88DE"/>
<circle cx="538.303" cy="328.534" r="4.62725" fill="#0E88DE"/>
<ellipse cx="538.303" cy="23.5219" rx="4.62725" ry="4.24164" fill="#0E88DE"/>
<ellipse cx="232.905" cy="23.5219" rx="4.62725" ry="4.24164" fill="#0E88DE"/>
<circle cx="538.303" cy="175.836" r="4.62725" fill="#0E88DE"/>
<circle cx="538.303" cy="99.4856" r="4.62725" fill="#0E88DE"/>
<circle cx="538.303" cy="252.185" r="4.62725" fill="#0E88DE"/>
<circle cx="309.255" cy="43.1878" r="4.62725" fill="#0E88DE"/>
<circle cx="4.62725" cy="43.1878" r="4.62725" fill="#0E88DE"/>
<circle cx="461.953" cy="43.1878" r="4.62725" fill="#0E88DE"/>
<circle cx="157.326" cy="43.1878" r="4.62725" fill="#0E88DE"/>
<circle cx="385.604" cy="43.1878" r="4.62725" fill="#0E88DE"/>
<circle cx="80.9769" cy="43.1878" r="4.62725" fill="#0E88DE"/>
<circle cx="538.303" cy="347.815" r="4.62725" fill="#0E88DE"/>
<circle cx="538.303" cy="43.1878" r="4.62725" fill="#0E88DE"/>
<circle cx="232.905" cy="43.1878" r="4.62725" fill="#0E88DE"/>
<circle cx="538.303" cy="195.116" r="4.62725" fill="#0E88DE"/>
<circle cx="538.303" cy="119.537" r="4.62725" fill="#0E88DE"/>
<circle cx="538.303" cy="271.465" r="4.62725" fill="#0E88DE"/>
<circle cx="309.255" cy="61.6966" r="4.62725" fill="#0E88DE"/>
<circle cx="4.62725" cy="61.6966" r="4.62725" fill="#0E88DE"/>
<circle cx="461.953" cy="61.6966" r="4.62725" fill="#0E88DE"/>
<circle cx="157.326" cy="61.6966" r="4.62725" fill="#0E88DE"/>
<circle cx="385.604" cy="61.6966" r="4.62725" fill="#0E88DE"/>
<circle cx="80.9769" cy="61.6966" r="4.62725" fill="#0E88DE"/>
<circle cx="538.303" cy="367.095" r="4.62725" fill="#0E88DE"/>
<circle cx="538.303" cy="61.6966" r="4.62725" fill="#0E88DE"/>
<circle cx="232.905" cy="61.6966" r="4.62725" fill="#0E88DE"/>
<circle cx="538.303" cy="214.396" r="4.62725" fill="#0E88DE"/>
<circle cx="538.303" cy="138.046" r="4.62725" fill="#0E88DE"/>
<circle cx="538.303" cy="290.745" r="4.62725" fill="#0E88DE"/>
<circle cx="328.534" cy="4.62725" r="4.62725" fill="#0E88DE"/>
<ellipse cx="23.5219" cy="4.62725" rx="4.24164" ry="4.62725" fill="#0E88DE"/>
<circle cx="480.463" cy="4.62725" r="4.62725" fill="#0E88DE"/>
<circle cx="175.836" cy="4.62725" r="4.62725" fill="#0E88DE"/>
<circle cx="328.535" cy="80.9769" r="4.62725" fill="#0E88DE"/>
<ellipse cx="23.5219" cy="80.9769" rx="4.24164" ry="4.62725" fill="#0E88DE"/>
<circle cx="480.463" cy="80.9769" r="4.62725" fill="#0E88DE"/>
<circle cx="175.836" cy="80.9769" r="4.62725" fill="#0E88DE"/>
<circle cx="404.884" cy="4.62725" r="4.62725" fill="#0E88DE"/>
<circle cx="99.4856" cy="4.62725" r="4.62725" fill="#0E88DE"/>
<circle cx="556.812" cy="309.254" r="4.62725" fill="#0E88DE"/>
<circle cx="556.812" cy="4.62725" r="4.62725" fill="#0E88DE"/>
<circle cx="252.185" cy="4.62725" r="4.62725" fill="#0E88DE"/>
<circle cx="556.812" cy="157.326" r="4.62725" fill="#0E88DE"/>
<circle cx="404.884" cy="80.9769" r="4.62725" fill="#0E88DE"/>
<circle cx="99.4856" cy="80.9769" r="4.62725" fill="#0E88DE"/>
<circle cx="556.812" cy="385.604" r="4.62725" fill="#0E88DE"/>
<circle cx="556.812" cy="80.9769" r="4.62725" fill="#0E88DE"/>
<circle cx="252.185" cy="80.9769" r="4.62725" fill="#0E88DE"/>
<circle cx="556.812" cy="232.905" r="4.62725" fill="#0E88DE"/>
<ellipse cx="328.535" cy="23.5219" rx="4.62725" ry="4.24164" fill="#0E88DE"/>
<circle cx="23.5219" cy="23.5219" r="4.24164" fill="#0E88DE"/>
<ellipse cx="480.463" cy="23.5219" rx="4.62725" ry="4.24164" fill="#0E88DE"/>
<ellipse cx="175.836" cy="23.5219" rx="4.62725" ry="4.24164" fill="#0E88DE"/>
<ellipse cx="404.884" cy="23.5219" rx="4.62725" ry="4.24164" fill="#0E88DE"/>
<ellipse cx="99.4856" cy="23.5219" rx="4.62725" ry="4.24164" fill="#0E88DE"/>
<circle cx="556.812" cy="328.534" r="4.62725" fill="#0E88DE"/>
<ellipse cx="556.812" cy="23.5219" rx="4.62725" ry="4.24164" fill="#0E88DE"/>
<ellipse cx="252.185" cy="23.5219" rx="4.62725" ry="4.24164" fill="#0E88DE"/>
<circle cx="556.812" cy="175.836" r="4.62725" fill="#0E88DE"/>
<circle cx="556.812" cy="99.4856" r="4.62725" fill="#0E88DE"/>
<circle cx="556.812" cy="252.185" r="4.62725" fill="#0E88DE"/>
<circle cx="328.535" cy="43.1878" r="4.62725" fill="#0E88DE"/>
<ellipse cx="23.5219" cy="43.1878" rx="4.24164" ry="4.62725" fill="#0E88DE"/>
<circle cx="480.463" cy="43.1878" r="4.62725" fill="#0E88DE"/>
<circle cx="175.836" cy="43.1878" r="4.62725" fill="#0E88DE"/>
<circle cx="404.884" cy="43.1878" r="4.62725" fill="#0E88DE"/>
<circle cx="99.4856" cy="43.1878" r="4.62725" fill="#0E88DE"/>
<circle cx="556.812" cy="347.815" r="4.62725" fill="#0E88DE"/>
<circle cx="556.812" cy="43.1878" r="4.62725" fill="#0E88DE"/>
<circle cx="252.185" cy="43.1878" r="4.62725" fill="#0E88DE"/>
<circle cx="556.812" cy="195.116" r="4.62725" fill="#0E88DE"/>
<circle cx="556.812" cy="119.537" r="4.62725" fill="#0E88DE"/>
<circle cx="556.812" cy="271.465" r="4.62725" fill="#0E88DE"/>
<circle cx="328.535" cy="61.6966" r="4.62725" fill="#0E88DE"/>
<ellipse cx="23.5219" cy="61.6966" rx="4.24164" ry="4.62725" fill="#0E88DE"/>
<circle cx="480.463" cy="61.6966" r="4.62725" fill="#0E88DE"/>
<circle cx="175.836" cy="61.6966" r="4.62725" fill="#0E88DE"/>
<circle cx="404.884" cy="61.6966" r="4.62725" fill="#0E88DE"/>
<circle cx="99.4856" cy="61.6966" r="4.62725" fill="#0E88DE"/>
<circle cx="556.812" cy="367.095" r="4.62725" fill="#0E88DE"/>
<circle cx="556.812" cy="61.6966" r="4.62725" fill="#0E88DE"/>
<circle cx="252.185" cy="61.6966" r="4.62725" fill="#0E88DE"/>
<circle cx="556.812" cy="214.396" r="4.62725" fill="#0E88DE"/>
<circle cx="556.812" cy="138.046" r="4.62725" fill="#0E88DE"/>
<circle cx="556.812" cy="290.745" r="4.62725" fill="#0E88DE"/>
<circle cx="347.815" cy="4.62725" r="4.62725" fill="#0E88DE"/>
<circle cx="43.1873" cy="4.62725" r="4.62725" fill="#0E88DE"/>
<circle cx="500.514" cy="4.62725" r="4.62725" fill="#0E88DE"/>
<circle cx="195.116" cy="4.62725" r="4.62725" fill="#0E88DE"/>
<circle cx="347.815" cy="80.9769" r="4.62725" fill="#0E88DE"/>
<circle cx="43.1878" cy="80.9769" r="4.62725" fill="#0E88DE"/>
<circle cx="500.514" cy="80.9769" r="4.62725" fill="#0E88DE"/>
<circle cx="195.116" cy="80.9769" r="4.62725" fill="#0E88DE"/>
<circle cx="424.164" cy="4.62725" r="4.62725" fill="#0E88DE"/>
<circle cx="119.537" cy="4.62725" r="4.62725" fill="#0E88DE"/>
<ellipse cx="576.478" cy="309.254" rx="4.24164" ry="4.62725" fill="#0E88DE"/>
<ellipse cx="576.478" cy="4.62725" rx="4.24164" ry="4.62725" fill="#0E88DE"/>
<circle cx="271.465" cy="4.62725" r="4.62725" fill="#0E88DE"/>
<ellipse cx="576.478" cy="157.326" rx="4.24164" ry="4.62725" fill="#0E88DE"/>
<circle cx="424.164" cy="80.9769" r="4.62725" fill="#0E88DE"/>
<circle cx="119.537" cy="80.9769" r="4.62725" fill="#0E88DE"/>
<ellipse cx="576.478" cy="385.604" rx="4.24164" ry="4.62725" fill="#0E88DE"/>
<ellipse cx="576.478" cy="80.9769" rx="4.24164" ry="4.62725" fill="#0E88DE"/>
<circle cx="271.465" cy="80.9769" r="4.62725" fill="#0E88DE"/>
<ellipse cx="576.478" cy="232.905" rx="4.24164" ry="4.62725" fill="#0E88DE"/>
<ellipse cx="347.815" cy="23.5219" rx="4.62725" ry="4.24164" fill="#0E88DE"/>
<ellipse cx="43.1878" cy="23.5219" rx="4.62725" ry="4.24164" fill="#0E88DE"/>
<ellipse cx="500.514" cy="23.5219" rx="4.62725" ry="4.24164" fill="#0E88DE"/>
<ellipse cx="195.116" cy="23.5219" rx="4.62725" ry="4.24164" fill="#0E88DE"/>
<ellipse cx="424.164" cy="23.5219" rx="4.62725" ry="4.24164" fill="#0E88DE"/>
<ellipse cx="119.537" cy="23.5219" rx="4.62725" ry="4.24164" fill="#0E88DE"/>
<ellipse cx="576.478" cy="328.534" rx="4.24164" ry="4.62725" fill="#0E88DE"/>
<circle cx="576.478" cy="23.5219" r="4.24164" fill="#0E88DE"/>
<ellipse cx="271.465" cy="23.5219" rx="4.62725" ry="4.24164" fill="#0E88DE"/>
<ellipse cx="576.478" cy="175.836" rx="4.24164" ry="4.62725" fill="#0E88DE"/>
<ellipse cx="576.478" cy="99.4856" rx="4.24164" ry="4.62725" fill="#0E88DE"/>
<ellipse cx="576.478" cy="252.185" rx="4.24164" ry="4.62725" fill="#0E88DE"/>
<circle cx="347.815" cy="43.1878" r="4.62725" fill="#0E88DE"/>
<circle cx="43.1878" cy="43.1878" r="4.62725" fill="#0E88DE"/>
<circle cx="500.514" cy="43.1878" r="4.62725" fill="#0E88DE"/>
<circle cx="195.116" cy="43.1878" r="4.62725" fill="#0E88DE"/>
<circle cx="424.164" cy="43.1878" r="4.62725" fill="#0E88DE"/>
<circle cx="119.537" cy="43.1878" r="4.62725" fill="#0E88DE"/>
<ellipse cx="576.478" cy="347.815" rx="4.24164" ry="4.62725" fill="#0E88DE"/>
<ellipse cx="576.478" cy="43.1878" rx="4.24164" ry="4.62725" fill="#0E88DE"/>
<circle cx="271.465" cy="43.1878" r="4.62725" fill="#0E88DE"/>
<ellipse cx="576.478" cy="195.116" rx="4.24164" ry="4.62725" fill="#0E88DE"/>
<ellipse cx="576.478" cy="119.537" rx="4.24164" ry="4.62725" fill="#0E88DE"/>
<ellipse cx="576.478" cy="271.465" rx="4.24164" ry="4.62725" fill="#0E88DE"/>
<circle cx="347.815" cy="61.6966" r="4.62725" fill="#0E88DE"/>
<circle cx="43.1878" cy="61.6966" r="4.62725" fill="#0E88DE"/>
<circle cx="500.514" cy="61.6966" r="4.62725" fill="#0E88DE"/>
<circle cx="195.116" cy="61.6966" r="4.62725" fill="#0E88DE"/>
<circle cx="424.164" cy="61.6966" r="4.62725" fill="#0E88DE"/>
<circle cx="119.537" cy="61.6966" r="4.62725" fill="#0E88DE"/>
<ellipse cx="576.478" cy="367.095" rx="4.24164" ry="4.62725" fill="#0E88DE"/>
<ellipse cx="576.478" cy="61.6966" rx="4.24164" ry="4.62725" fill="#0E88DE"/>
<circle cx="271.465" cy="61.6966" r="4.62725" fill="#0E88DE"/>
<ellipse cx="576.478" cy="214.396" rx="4.24164" ry="4.62725" fill="#0E88DE"/>
<ellipse cx="576.478" cy="138.046" rx="4.24164" ry="4.62725" fill="#0E88DE"/>
<ellipse cx="576.478" cy="290.745" rx="4.24164" ry="4.62725" fill="#0E88DE"/>
<circle cx="367.095" cy="4.62725" r="4.62725" fill="#0E88DE"/>
<circle cx="61.6966" cy="4.62725" r="4.62725" fill="#0E88DE"/>
<circle cx="519.023" cy="309.254" r="4.62725" fill="#0E88DE"/>
<circle cx="519.023" cy="4.62725" r="4.62725" fill="#0E88DE"/>
<circle cx="214.396" cy="4.62725" r="4.62725" fill="#0E88DE"/>
<circle cx="519.023" cy="157.326" r="4.62725" fill="#0E88DE"/>
<circle cx="367.095" cy="80.9769" r="4.62725" fill="#0E88DE"/>
<circle cx="61.6966" cy="80.9769" r="4.62725" fill="#0E88DE"/>
<circle cx="519.023" cy="385.604" r="4.62725" fill="#0E88DE"/>
<circle cx="519.023" cy="80.9769" r="4.62725" fill="#0E88DE"/>
<circle cx="214.396" cy="80.9769" r="4.62725" fill="#0E88DE"/>
<circle cx="519.023" cy="232.905" r="4.62725" fill="#0E88DE"/>
<circle cx="442.673" cy="4.62725" r="4.62725" fill="#0E88DE"/>
<circle cx="138.046" cy="4.62725" r="4.62725" fill="#0E88DE"/>
<circle cx="595.373" cy="309.254" r="4.62725" fill="#0E88DE"/>
<circle cx="595.373" cy="4.62725" r="4.62725" fill="#0E88DE"/>
<circle cx="290.745" cy="4.62725" r="4.62725" fill="#0E88DE"/>
<circle cx="595.373" cy="157.326" r="4.62725" fill="#0E88DE"/>
<circle cx="442.673" cy="80.9769" r="4.62725" fill="#0E88DE"/>
<circle cx="138.046" cy="80.9769" r="4.62725" fill="#0E88DE"/>
<circle cx="595.373" cy="385.604" r="4.62725" fill="#0E88DE"/>
<circle cx="595.373" cy="80.9769" r="4.62725" fill="#0E88DE"/>
<circle cx="290.745" cy="80.9769" r="4.62725" fill="#0E88DE"/>
<circle cx="595.373" cy="232.905" r="4.62725" fill="#0E88DE"/>
<ellipse cx="367.095" cy="23.5219" rx="4.62725" ry="4.24164" fill="#0E88DE"/>
<ellipse cx="61.6966" cy="23.5219" rx="4.62725" ry="4.24164" fill="#0E88DE"/>
<circle cx="519.023" cy="328.534" r="4.62725" fill="#0E88DE"/>
<ellipse cx="519.023" cy="23.5219" rx="4.62725" ry="4.24164" fill="#0E88DE"/>
<ellipse cx="214.396" cy="23.5219" rx="4.62725" ry="4.24164" fill="#0E88DE"/>
<circle cx="519.023" cy="175.836" r="4.62725" fill="#0E88DE"/>
<circle cx="519.023" cy="99.4856" r="4.62725" fill="#0E88DE"/>
<circle cx="519.023" cy="252.185" r="4.62725" fill="#0E88DE"/>
<ellipse cx="442.673" cy="23.5219" rx="4.62725" ry="4.24164" fill="#0E88DE"/>
<ellipse cx="138.046" cy="23.5219" rx="4.62725" ry="4.24164" fill="#0E88DE"/>
<circle cx="595.373" cy="328.534" r="4.62725" fill="#0E88DE"/>
<ellipse cx="595.373" cy="23.5219" rx="4.62725" ry="4.24164" fill="#0E88DE"/>
<ellipse cx="290.745" cy="23.5219" rx="4.62725" ry="4.24164" fill="#0E88DE"/>
<circle cx="595.373" cy="175.836" r="4.62725" fill="#0E88DE"/>
<circle cx="595.373" cy="99.4856" r="4.62725" fill="#0E88DE"/>
<circle cx="595.373" cy="252.185" r="4.62725" fill="#0E88DE"/>
<circle cx="367.095" cy="43.1878" r="4.62725" fill="#0E88DE"/>
<circle cx="61.6966" cy="43.1878" r="4.62725" fill="#0E88DE"/>
<circle cx="519.023" cy="347.815" r="4.62725" fill="#0E88DE"/>
<circle cx="519.023" cy="43.1878" r="4.62725" fill="#0E88DE"/>
<circle cx="214.396" cy="43.1878" r="4.62725" fill="#0E88DE"/>
<circle cx="519.023" cy="195.116" r="4.62725" fill="#0E88DE"/>
<circle cx="519.023" cy="119.537" r="4.62725" fill="#0E88DE"/>
<circle cx="519.023" cy="271.465" r="4.62725" fill="#0E88DE"/>
<circle cx="442.673" cy="43.1878" r="4.62725" fill="#0E88DE"/>
<circle cx="138.046" cy="43.1878" r="4.62725" fill="#0E88DE"/>
<circle cx="595.373" cy="347.815" r="4.62725" fill="#0E88DE"/>
<circle cx="595.373" cy="43.1878" r="4.62725" fill="#0E88DE"/>
<circle cx="290.745" cy="43.1878" r="4.62725" fill="#0E88DE"/>
<circle cx="595.373" cy="195.116" r="4.62725" fill="#0E88DE"/>
<circle cx="595.373" cy="119.537" r="4.62725" fill="#0E88DE"/>
<circle cx="595.373" cy="271.465" r="4.62725" fill="#0E88DE"/>
<circle cx="367.095" cy="61.6966" r="4.62725" fill="#0E88DE"/>
<circle cx="61.6966" cy="61.6966" r="4.62725" fill="#0E88DE"/>
<circle cx="519.023" cy="367.095" r="4.62725" fill="#0E88DE"/>
<circle cx="519.023" cy="61.6966" r="4.62725" fill="#0E88DE"/>
<circle cx="214.396" cy="61.6966" r="4.62725" fill="#0E88DE"/>
<circle cx="519.023" cy="214.396" r="4.62725" fill="#0E88DE"/>
<circle cx="519.023" cy="138.046" r="4.62725" fill="#0E88DE"/>
<circle cx="519.023" cy="290.745" r="4.62725" fill="#0E88DE"/>
<circle cx="442.673" cy="61.6966" r="4.62725" fill="#0E88DE"/>
<circle cx="138.046" cy="61.6966" r="4.62725" fill="#0E88DE"/>
<circle cx="595.373" cy="367.095" r="4.62725" fill="#0E88DE"/>
<circle cx="595.373" cy="61.6966" r="4.62725" fill="#0E88DE"/>
<circle cx="290.745" cy="61.6966" r="4.62725" fill="#0E88DE"/>
<circle cx="595.373" cy="214.396" r="4.62725" fill="#0E88DE"/>
<circle cx="595.373" cy="138.046" r="4.62725" fill="#0E88DE"/>
<circle cx="595.373" cy="290.745" r="4.62725" fill="#0E88DE"/>
</svg>
